<?xml version="1.0" encoding="UTF-8"?>
<svg version="1.1" xmlns="http://www.w3.org/2000/svg" width="1920" height="1920">
<path d="M0 0 C633.6 0 1267.2 0 1920 0 C1920 633.6 1920 1267.2 1920 1920 C1286.4 1920 652.8 1920 0 1920 C0 1286.4 0 652.8 0 0 Z " fill="#FEFEFE" transform="translate(0,0)"/>
<path d="M0 0 C0.85207031 0.49113281 1.70414063 0.98226563 2.58203125 1.48828125 C10.67109852 6.37567872 17.77680541 12.4012957 25.04833984 18.3984375 C41.3907939 31.80930798 56.87523235 43.22377253 78.6875 43.125 C79.93950195 43.13080078 79.93950195 43.13080078 81.21679688 43.13671875 C91.60755903 43.12076977 101.42799066 41.87692839 111.5625 39.625 C139.58284613 33.60341697 139.58284613 33.60341697 153 33 C153.64904297 32.96745117 154.29808594 32.93490234 154.96679688 32.90136719 C167.99654337 32.32187711 182.02877986 32.52441554 192.44140625 41.50390625 C192.95574219 41.99761719 193.47007812 42.49132812 194 43 C194.845625 43.78375 195.69125 44.5675 196.5625 45.375 C197.366875 46.24125 198.17125 47.1075 199 48 C199.76376953 48.75603516 199.76376953 48.75603516 200.54296875 49.52734375 C211.8227692 61.32338221 218.09391666 78.11767048 224.90600586 92.68847656 C225.61337451 94.18309081 226.3571013 95.66125915 227.14282227 97.11621094 C228 99 228 99 228 102 C228.66 102 229.32 102 230 102 C231.13162539 103.79149138 232.17946133 105.63616648 233.1875 107.5 C244.27170409 126.9259247 263.36492416 133.99662211 284 140 C289.17232907 141.39445758 294.37516894 142.65992462 299.58203125 143.91796875 C303.57074361 144.88339486 307.50064624 145.96044396 311.41015625 147.2109375 C313.5266285 147.8557752 315.66539995 148.42702563 317.80859375 148.9765625 C334.08367884 153.22900009 351.96614683 161.20929357 361 176.0625 C363.27226798 180.33564095 365.09310907 184.21821148 366 189 C366.24000732 190.26263672 366.24000732 190.26263672 366.48486328 191.55078125 C368.48054215 203.52112771 368.41799832 215.51916986 368.5625 227.625 C368.60682572 230.90268093 368.65381522 234.18027885 368.70530701 237.45785522 C368.73658958 239.48141075 368.7636694 241.50503788 368.78553772 243.52871704 C369.11976479 266.69256206 376.11333285 280.18733404 392 297 C392.57363281 297.61488281 393.14726563 298.22976563 393.73828125 298.86328125 C397.83668573 303.11818805 402.33390898 306.79142103 406.92578125 310.5 C415.51480158 317.48471793 423.85103332 324.75719702 432 332.25 C432.91604004 333.08084106 432.91604004 333.08084106 433.85058594 333.9284668 C440.28172348 339.90744263 444.99284732 346.42314966 448.8125 354.3125 C449.11091797 354.91900391 449.40933594 355.52550781 449.71679688 356.15039062 C455.66883264 368.36348432 453.84640263 381.64988808 449.62231445 394.1652832 C447.00623524 401.43533213 443.65708605 408.19504241 440 415 C428.87235487 435.10573307 428.87235487 435.10573307 423 457 C422.89558594 458.03382813 422.79117188 459.06765625 422.68359375 460.1328125 C421.69654484 479.57977605 430.40775795 499.20879355 439.11743164 516.18066406 C441.48751531 520.83826584 443.46299461 525.50569598 445.11328125 530.47265625 C445.80666127 532.44894204 446.60490819 534.38850199 447.44140625 536.30859375 C449.10168392 540.12955626 450.39101957 544.02384082 451.625 548 C451.8415625 548.67289063 452.058125 549.34578125 452.28125 550.0390625 C456.34550496 563.03464318 456.61150187 576.14671375 450.4375 588.375 C442.42156706 602.41256373 429.12815871 612.512982 416.42236328 622.09936523 C395.22401575 638.12940331 380.63702745 652.74355749 376 680 C375.51073739 684.73367872 375.29273633 689.4562154 375.12109375 694.2109375 C375.03307742 696.18669217 374.94505228 698.16244648 374.85651493 700.13817787 C374.73719423 702.86141558 374.6283408 705.58502644 374.51989746 708.30871582 C374.32878293 713.10130199 374.13057454 717.89353873 373.91773987 722.68521118 C373.80599225 725.22472034 373.70202217 727.76458757 373.60704041 730.30477905 C373.33779314 736.4985728 372.76576648 742.05406933 371 748 C370.77699219 749.00804687 370.55398438 750.01609375 370.32421875 751.0546875 C367.44324289 763.81581982 361.91635331 774.62989902 350.8125 782.125 C333.68807922 791.54603392 312.65493755 795.34271669 293.6640625 799.05859375 C273.7728866 802.97976489 258.56330985 812.14937747 247 829 C241.65939384 837.41334459 236.93615678 846.19683234 232.27734375 855 C231.79360542 855.91188583 231.79360542 855.91188583 231.3000946 856.8421936 C229.70927816 859.84338409 228.12932452 862.84897561 226.56616211 865.86474609 C217.72377812 882.67767885 205.36946191 903.34993422 186.359375 909.65234375 C180.97319251 911.17527156 175.89041589 911.5374422 170.3125 911.5 C169.32064697 911.49572998 168.32879395 911.49145996 167.30688477 911.48706055 C157.17732743 911.26100072 147.68636037 909.19164321 137.89794922 906.72314453 C133.91330771 905.72883045 129.91157385 904.81685779 125.90649414 903.90893555 C124.02547716 903.48248743 122.1456578 903.05070692 120.26733398 902.61254883 C97.33597158 897.30667383 79.79672006 899.80983683 59.74755859 911.99658203 C50.45611889 917.81978038 41.73511922 924.38497745 33 931 C14.89082536 944.66466178 -5.30615728 958.32189105 -29 956 C-45.41705181 951.60189836 -58.39940533 940.51982438 -71.390625 930.09375 C-72.68226563 929.05734375 -72.68226563 929.05734375 -74 928 C-74.98484375 927.2059375 -75.9696875 926.411875 -76.984375 925.59375 C-97.687731 909.12887633 -116.25520836 901.48355095 -142.9921875 904.49609375 C-155.50908962 906.13220186 -167.9311065 908.54201201 -180.34375 910.81640625 C-200.17546163 914.38373128 -200.17546163 914.38373128 -209 914.3125 C-210.14082031 914.30404053 -210.14082031 914.30404053 -211.3046875 914.29541016 C-224.98345406 914.0046788 -235.68159443 910.24471115 -245.6875 900.8125 C-255.47673505 890.42636037 -261.24576373 877.09579528 -267.66894531 864.50439453 C-268.6022858 862.74830379 -269.58910377 861.02009139 -270.61376953 859.31567383 C-271.95217977 857.07988286 -272.78193859 855.01930016 -273.625 852.5625 C-276.41147066 845.42016716 -280.64211731 839.26304999 -285 833 C-285.53238281 832.22269531 -286.06476563 831.44539063 -286.61328125 830.64453125 C-299.88643295 813.46145889 -327.43417079 807.59538679 -347.5 803 C-368.79029103 798.10908649 -392.83654245 792.02047054 -407 774 C-414.66112149 760.71274242 -416.06900815 746.96488733 -416.28125 731.9453125 C-416.29965942 730.9225119 -416.31806885 729.8997113 -416.33703613 728.84591675 C-416.39522928 725.60566404 -416.44825866 722.36536174 -416.5 719.125 C-416.56838007 714.85667791 -416.64207033 710.58849266 -416.71875 706.3203125 C-416.73232544 705.36367706 -416.74590088 704.40704163 -416.7598877 703.42141724 C-417.17186687 680.55682097 -423.4096963 665.96315976 -439.69580078 649.9609375 C-444.07947858 645.75563086 -448.65171087 641.84646944 -453.41796875 638.078125 C-456.05869076 635.95276326 -458.5612708 633.72478269 -461.0625 631.4375 C-465.12372956 627.73195137 -469.32797076 624.28513998 -473.67578125 620.921875 C-486.73666625 610.12194992 -499.34583183 594.95182244 -501.38671875 577.73828125 C-502.33819652 558.18012699 -492.75292276 540.30638858 -484.15429688 523.34765625 C-473.84674004 502.90505399 -466.89886253 485.44181945 -473.7265625 462.70703125 C-476.88601155 453.50973939 -480.5246948 444.64196867 -485 436 C-487.52875518 430.39276025 -489.66571727 424.65259547 -491.81640625 418.890625 C-492.93893266 415.87704674 -492.93893266 415.87704674 -495 413 C-496.54168139 408.73122674 -497.75348761 404.36279335 -499 400 C-499.18916992 399.35208496 -499.37833984 398.70416992 -499.57324219 398.03662109 C-503.4995886 384.42773112 -505.33248976 371.58418423 -498.7109375 358.44140625 C-493.5455674 349.36748069 -487.08070966 342.81513129 -478.94921875 336.34765625 C-475.96212489 333.96985041 -473.04239447 331.52513549 -470.125 329.0625 C-465.97573582 325.58957125 -461.75278236 322.26279004 -457.4375 319 C-436.14446688 302.75380541 -427.31826626 286.66251794 -423.48413086 260.47680664 C-422.83110916 255.17819241 -422.77776649 249.87941691 -422.67578125 244.546875 C-422.61666632 242.2942328 -422.55606991 240.04162908 -422.49414062 237.7890625 C-422.39992109 234.28808842 -422.313159 230.78785409 -422.25219727 227.28613281 C-421.9174378 208.96163407 -420.79006216 189.06842128 -409 174 C-408.5359375 173.38511719 -408.071875 172.77023437 -407.59375 172.13671875 C-395.37513355 158.07907585 -373.34648874 154.28346065 -356 151 C-353.46705228 150.51827824 -350.93424318 150.03603288 -348.40234375 149.54882812 C-346.71063115 149.22329765 -345.01789892 148.90302407 -343.32421875 148.58789062 C-337.9414615 147.54054793 -333.08442253 146.05916352 -328 144 C-326.865625 143.54625 -325.73125 143.0925 -324.5625 142.625 C-301.46910846 132.09117228 -289.91731871 111.06882538 -279.04541016 89.06665039 C-273.03315135 76.95418367 -266.12219768 65.79742068 -258 55 C-257.21689453 53.93458984 -257.21689453 53.93458984 -256.41796875 52.84765625 C-250.10585871 44.82563743 -240.13670103 37.69055387 -230 36 C-213.6396663 34.55180813 -198.79797226 37.09741806 -183.02978516 41.22607422 C-178.50411054 42.38210875 -173.94732121 43.36086538 -169.375 44.3125 C-168.63596436 44.47137695 -167.89692871 44.63025391 -167.13549805 44.79394531 C-144.4137789 49.57414747 -126.34789829 45.97261766 -106.8046875 34.05078125 C-103.82440508 32.09174227 -100.90573684 30.06790971 -98 28 C-96.89204455 27.21988522 -95.78396724 26.43994351 -94.67578125 25.66015625 C-89.84269688 22.24186609 -85.03854604 18.78913134 -80.3046875 15.234375 C-54.96187665 -3.7586409 -30.0024077 -17.61647649 0 0 Z " fill="#060606" transform="translate(984,270)"/>
<path d="M0 0 C0.85207031 0.49113281 1.70414063 0.98226563 2.58203125 1.48828125 C10.67109852 6.37567872 17.77680541 12.4012957 25.04833984 18.3984375 C41.3907939 31.80930798 56.87523235 43.22377253 78.6875 43.125 C79.93950195 43.13080078 79.93950195 43.13080078 81.21679688 43.13671875 C91.60755903 43.12076977 101.42799066 41.87692839 111.5625 39.625 C139.58284613 33.60341697 139.58284613 33.60341697 153 33 C153.64904297 32.96745117 154.29808594 32.93490234 154.96679688 32.90136719 C167.99654337 32.32187711 182.02877986 32.52441554 192.44140625 41.50390625 C192.95574219 41.99761719 193.47007812 42.49132812 194 43 C194.845625 43.78375 195.69125 44.5675 196.5625 45.375 C197.366875 46.24125 198.17125 47.1075 199 48 C199.76376953 48.75603516 199.76376953 48.75603516 200.54296875 49.52734375 C211.8227692 61.32338221 218.09391666 78.11767048 224.90600586 92.68847656 C225.61337451 94.18309081 226.3571013 95.66125915 227.14282227 97.11621094 C228 99 228 99 228 102 C228.66 102 229.32 102 230 102 C231.13162539 103.79149138 232.17946133 105.63616648 233.1875 107.5 C244.27170409 126.9259247 263.36492416 133.99662211 284 140 C289.17232907 141.39445758 294.37516894 142.65992462 299.58203125 143.91796875 C303.57074361 144.88339486 307.50064624 145.96044396 311.41015625 147.2109375 C313.5266285 147.8557752 315.66539995 148.42702563 317.80859375 148.9765625 C334.08367884 153.22900009 351.96614683 161.20929357 361 176.0625 C363.27226798 180.33564095 365.09310907 184.21821148 366 189 C366.24000732 190.26263672 366.24000732 190.26263672 366.48486328 191.55078125 C368.48054215 203.52112771 368.41799832 215.51916986 368.5625 227.625 C368.60682572 230.90268093 368.65381522 234.18027885 368.70530701 237.45785522 C368.73658958 239.48141075 368.7636694 241.50503788 368.78553772 243.52871704 C369.11976479 266.69256206 376.11333285 280.18733404 392 297 C392.57363281 297.61488281 393.14726563 298.22976563 393.73828125 298.86328125 C397.83668573 303.11818805 402.33390898 306.79142103 406.92578125 310.5 C415.51480158 317.48471793 423.85103332 324.75719702 432 332.25 C432.91604004 333.08084106 432.91604004 333.08084106 433.85058594 333.9284668 C440.28172348 339.90744263 444.99284732 346.42314966 448.8125 354.3125 C449.11091797 354.91900391 449.40933594 355.52550781 449.71679688 356.15039062 C455.66883264 368.36348432 453.84640263 381.64988808 449.62231445 394.1652832 C447.00623524 401.43533213 443.65708605 408.19504241 440 415 C428.87235487 435.10573307 428.87235487 435.10573307 423 457 C422.89558594 458.03382813 422.79117188 459.06765625 422.68359375 460.1328125 C421.69654484 479.57977605 430.40775795 499.20879355 439.11743164 516.18066406 C441.48751531 520.83826584 443.46299461 525.50569598 445.11328125 530.47265625 C445.80666127 532.44894204 446.60490819 534.38850199 447.44140625 536.30859375 C449.10168392 540.12955626 450.39101957 544.02384082 451.625 548 C451.8415625 548.67289063 452.058125 549.34578125 452.28125 550.0390625 C456.34550496 563.03464318 456.61150187 576.14671375 450.4375 588.375 C442.42156706 602.41256373 429.12815871 612.512982 416.42236328 622.09936523 C395.22401575 638.12940331 380.63702745 652.74355749 376 680 C375.51073739 684.73367872 375.29273633 689.4562154 375.12109375 694.2109375 C375.03307742 696.18669217 374.94505228 698.16244648 374.85651493 700.13817787 C374.73719423 702.86141558 374.6283408 705.58502644 374.51989746 708.30871582 C374.32878293 713.10130199 374.13057454 717.89353873 373.91773987 722.68521118 C373.80599225 725.22472034 373.70202217 727.76458757 373.60704041 730.30477905 C373.33779314 736.4985728 372.76576648 742.05406933 371 748 C370.77699219 749.00804687 370.55398438 750.01609375 370.32421875 751.0546875 C367.44324289 763.81581982 361.91635331 774.62989902 350.8125 782.125 C333.68807922 791.54603392 312.65493755 795.34271669 293.6640625 799.05859375 C273.7728866 802.97976489 258.56330985 812.14937747 247 829 C241.65939384 837.41334459 236.93615678 846.19683234 232.27734375 855 C231.79360542 855.91188583 231.79360542 855.91188583 231.3000946 856.8421936 C229.70927816 859.84338409 228.12932452 862.84897561 226.56616211 865.86474609 C217.72377812 882.67767885 205.36946191 903.34993422 186.359375 909.65234375 C180.97319251 911.17527156 175.89041589 911.5374422 170.3125 911.5 C169.32064697 911.49572998 168.32879395 911.49145996 167.30688477 911.48706055 C157.17732743 911.26100072 147.68636037 909.19164321 137.89794922 906.72314453 C133.91330771 905.72883045 129.91157385 904.81685779 125.90649414 903.90893555 C124.02547716 903.48248743 122.1456578 903.05070692 120.26733398 902.61254883 C97.33597158 897.30667383 79.79672006 899.80983683 59.74755859 911.99658203 C50.45611889 917.81978038 41.73511922 924.38497745 33 931 C14.89082536 944.66466178 -5.30615728 958.32189105 -29 956 C-45.41705181 951.60189836 -58.39940533 940.51982438 -71.390625 930.09375 C-72.68226563 929.05734375 -72.68226563 929.05734375 -74 928 C-74.98484375 927.2059375 -75.9696875 926.411875 -76.984375 925.59375 C-97.687731 909.12887633 -116.25520836 901.48355095 -142.9921875 904.49609375 C-155.50908962 906.13220186 -167.9311065 908.54201201 -180.34375 910.81640625 C-200.17546163 914.38373128 -200.17546163 914.38373128 -209 914.3125 C-210.14082031 914.30404053 -210.14082031 914.30404053 -211.3046875 914.29541016 C-224.98345406 914.0046788 -235.68159443 910.24471115 -245.6875 900.8125 C-255.47673505 890.42636037 -261.24576373 877.09579528 -267.66894531 864.50439453 C-268.6022858 862.74830379 -269.58910377 861.02009139 -270.61376953 859.31567383 C-271.95217977 857.07988286 -272.78193859 855.01930016 -273.625 852.5625 C-276.41147066 845.42016716 -280.64211731 839.26304999 -285 833 C-285.53238281 832.22269531 -286.06476563 831.44539063 -286.61328125 830.64453125 C-299.88643295 813.46145889 -327.43417079 807.59538679 -347.5 803 C-368.79029103 798.10908649 -392.83654245 792.02047054 -407 774 C-414.66112149 760.71274242 -416.06900815 746.96488733 -416.28125 731.9453125 C-416.29965942 730.9225119 -416.31806885 729.8997113 -416.33703613 728.84591675 C-416.39522928 725.60566404 -416.44825866 722.36536174 -416.5 719.125 C-416.56838007 714.85667791 -416.64207033 710.58849266 -416.71875 706.3203125 C-416.73232544 705.36367706 -416.74590088 704.40704163 -416.7598877 703.42141724 C-417.17186687 680.55682097 -423.4096963 665.96315976 -439.69580078 649.9609375 C-444.07947858 645.75563086 -448.65171087 641.84646944 -453.41796875 638.078125 C-456.05869076 635.95276326 -458.5612708 633.72478269 -461.0625 631.4375 C-465.12372956 627.73195137 -469.32797076 624.28513998 -473.67578125 620.921875 C-486.73666625 610.12194992 -499.34583183 594.95182244 -501.38671875 577.73828125 C-502.33819652 558.18012699 -492.75292276 540.30638858 -484.15429688 523.34765625 C-473.84674004 502.90505399 -466.89886253 485.44181945 -473.7265625 462.70703125 C-476.88601155 453.50973939 -480.5246948 444.64196867 -485 436 C-487.52875518 430.39276025 -489.66571727 424.65259547 -491.81640625 418.890625 C-492.93893266 415.87704674 -492.93893266 415.87704674 -495 413 C-496.54168139 408.73122674 -497.75348761 404.36279335 -499 400 C-499.18916992 399.35208496 -499.37833984 398.70416992 -499.57324219 398.03662109 C-503.4995886 384.42773112 -505.33248976 371.58418423 -498.7109375 358.44140625 C-493.5455674 349.36748069 -487.08070966 342.81513129 -478.94921875 336.34765625 C-475.96212489 333.96985041 -473.04239447 331.52513549 -470.125 329.0625 C-465.97573582 325.58957125 -461.75278236 322.26279004 -457.4375 319 C-436.14446688 302.75380541 -427.31826626 286.66251794 -423.48413086 260.47680664 C-422.83110916 255.17819241 -422.77776649 249.87941691 -422.67578125 244.546875 C-422.61666632 242.2942328 -422.55606991 240.04162908 -422.49414062 237.7890625 C-422.39992109 234.28808842 -422.313159 230.78785409 -422.25219727 227.28613281 C-421.9174378 208.96163407 -420.79006216 189.06842128 -409 174 C-408.5359375 173.38511719 -408.071875 172.77023437 -407.59375 172.13671875 C-395.37513355 158.07907585 -373.34648874 154.28346065 -356 151 C-353.46705228 150.51827824 -350.93424318 150.03603288 -348.40234375 149.54882812 C-346.71063115 149.22329765 -345.01789892 148.90302407 -343.32421875 148.58789062 C-337.9414615 147.54054793 -333.08442253 146.05916352 -328 144 C-326.865625 143.54625 -325.73125 143.0925 -324.5625 142.625 C-301.46910846 132.09117228 -289.91731871 111.06882538 -279.04541016 89.06665039 C-273.03315135 76.95418367 -266.12219768 65.79742068 -258 55 C-257.21689453 53.93458984 -257.21689453 53.93458984 -256.41796875 52.84765625 C-250.10585871 44.82563743 -240.13670103 37.69055387 -230 36 C-213.6396663 34.55180813 -198.79797226 37.09741806 -183.02978516 41.22607422 C-178.50411054 42.38210875 -173.94732121 43.36086538 -169.375 44.3125 C-168.63596436 44.47137695 -167.89692871 44.63025391 -167.13549805 44.79394531 C-144.4137789 49.57414747 -126.34789829 45.97261766 -106.8046875 34.05078125 C-103.82440508 32.09174227 -100.90573684 30.06790971 -98 28 C-96.89204455 27.21988522 -95.78396724 26.43994351 -94.67578125 25.66015625 C-89.84269688 22.24186609 -85.03854604 18.78913134 -80.3046875 15.234375 C-54.96187665 -3.7586409 -30.0024077 -17.61647649 0 0 Z M-85.6796875 90.09765625 C-88.97708567 90.68579469 -92.23104056 91.14314232 -95.56640625 91.44140625 C-100.59338015 91.95740902 -105.24731534 93.39171103 -110.0625 94.875 C-117.78966156 97.17989175 -125.39846185 98.99520984 -133.359375 100.26171875 C-146.646184 102.95614676 -159.4227227 109.08385092 -172 114 C-172.89074219 114.34675781 -173.78148437 114.69351563 -174.69921875 115.05078125 C-182.37530109 118.05446565 -189.81621484 121.06797859 -196.7265625 125.640625 C-199.09558661 127.05715488 -201.53245622 128.09179228 -204.07666016 129.15136719 C-207.62443828 130.71674885 -210.99066015 132.61237962 -214.375 134.5 C-215.15520508 134.93505859 -215.93541016 135.37011719 -216.73925781 135.81835938 C-239.96227436 148.93099296 -262.6444534 164.86736101 -282.03125 183.20703125 C-284 185 -284 185 -286 186 C-286 186.66 -286 187.32 -286 188 C-286.56170898 188.2371875 -287.12341797 188.474375 -287.70214844 188.71875 C-290.52582658 190.29319357 -292.47614842 192.21684545 -294.765625 194.5 C-295.65507813 195.386875 -296.54453125 196.27375 -297.4609375 197.1875 C-298.84152344 198.5796875 -298.84152344 198.5796875 -300.25 200 C-301.18585938 200.928125 -302.12171875 201.85625 -303.0859375 202.8125 C-303.97023438 203.699375 -304.85453125 204.58625 -305.765625 205.5 C-306.57805664 206.3146875 -307.39048828 207.129375 -308.22753906 207.96875 C-310.21915939 209.80184993 -310.21915939 209.80184993 -310 212 C-310.66 212 -311.32 212 -312 212 C-313.39599396 213.52837269 -314.71587649 215.12650099 -316 216.75 C-316.81082031 217.76578125 -317.62164063 218.7815625 -318.45703125 219.828125 C-319.0905249 220.62379883 -319.0905249 220.62379883 -319.73681641 221.43554688 C-321.67158786 223.8317617 -323.68682846 226.15871827 -325.6875 228.5 C-347.05639202 254.17580049 -367.07377545 284.27712355 -379.05078125 315.609375 C-380.04213328 318.10611344 -381.16213138 320.51018499 -382.3125 322.9375 C-388.55397255 336.60747362 -392.95595647 350.75037066 -396.73828125 365.26953125 C-397.41578222 367.86670207 -398.12973498 370.38458987 -398.98828125 372.9296875 C-404.62478618 390.03506539 -407.69790679 408.17892096 -410 426 C-410.11859375 426.9089502 -410.2371875 427.81790039 -410.359375 428.75439453 C-414.72172023 464.47758772 -414.48868855 503.67190466 -406.68481445 538.84375 C-405.90244713 542.44961267 -405.31155069 546.04143156 -404.75 549.6875 C-400.05469694 577.63447286 -390.59196308 604.17566694 -379.28417969 630.03955078 C-378.16516029 632.61925215 -377.07805491 635.20840377 -376.0078125 637.80859375 C-361.08222266 673.55836653 -335.65235079 711.3486214 -307.6015625 738.40234375 C-305.84559085 740.15403255 -304.23902221 741.99197409 -302.625 743.875 C-296.91827415 750.47539656 -290.70755556 756.52375914 -284.08203125 762.1953125 C-281.75951233 764.20845273 -279.5098105 766.29179351 -277.25 768.375 C-272.68465746 772.49921281 -267.88196332 776.18032109 -262.92578125 779.8203125 C-260.2796249 781.79168131 -257.73111742 783.83680104 -255.1875 785.9375 C-230.73285744 805.56302673 -200.93303816 821.68245226 -171.6015625 832.55859375 C-168.6112419 833.75537065 -165.72538035 835.04567338 -162.80859375 836.40625 C-157.13081042 839.00728075 -151.36551906 841.10852306 -145.4375 843.0625 C-143.86560913 843.58227417 -143.86560913 843.58227417 -142.26196289 844.11254883 C-134.03784683 846.77526721 -125.82711847 848.83821085 -117.35498047 850.51708984 C-114.79095591 851.04286639 -112.24214037 851.62022977 -109.69140625 852.20703125 C-95.2212535 855.5150693 -80.70627339 858.0002733 -66 860 C-65.17016602 860.12004395 -64.34033203 860.24008789 -63.48535156 860.36376953 C-37.19716033 864.07419787 -8.25755033 863.78561352 18 860 C18.9605127 859.87109375 19.92102539 859.7421875 20.91064453 859.609375 C42.83039451 856.64974631 64.87965598 852.67082294 86 846 C87.62470899 845.51594924 89.2497378 845.03297127 90.875 844.55078125 C104.99923744 840.29074549 118.5129216 834.96082513 132 829 C133.1437207 828.49662109 134.28744141 827.99324219 135.46582031 827.47460938 C150.97108661 820.60127187 165.70926905 813.13312426 180 804 C181.28052266 803.19935638 182.56173344 802.39981185 183.84375 801.6015625 C219.44993148 779.266688 251.55400171 750.6350461 278 718 C279.17369141 716.55367187 279.17369141 716.55367187 280.37109375 715.078125 C291.6050292 700.83740551 301.77026736 685.60663883 311 670 C311.82094404 668.67015874 312.64260944 667.34076263 313.46484375 666.01171875 C321.65991165 652.55650515 328.06710495 638.33380134 334.21105957 623.85852051 C334.98217552 622.04198943 335.75812145 620.22751108 336.53417969 618.41308594 C343.39070018 602.23169757 348.43336629 586.11352749 352.31396484 568.97998047 C353.06576034 565.71435204 353.89394723 562.47501718 354.74658203 559.23461914 C357.93339315 547.06693536 359.79873895 534.68042961 361.625 522.25 C361.74818604 521.42346924 361.87137207 520.59693848 361.99829102 519.74536133 C364.12183069 504.83949234 364.2789901 489.96861325 364.3125 474.9375 C364.31642761 473.2524939 364.31642761 473.2524939 364.32043457 471.53344727 C364.32681065 445.88156569 362.72194408 420.31661277 356.56054688 395.32226562 C355.89404295 392.56103507 355.28196129 389.78985691 354.671875 387.015625 C354.21920044 384.96865034 353.76608186 382.92177381 353.3125 380.875 C353.09795166 379.90643066 352.88340332 378.93786133 352.66235352 377.93994141 C352.35962524 376.60455322 352.35962524 376.60455322 352.05078125 375.2421875 C351.87200439 374.4466748 351.69322754 373.65116211 351.5090332 372.83154297 C351.16091528 370.99693609 351.16091528 370.99693609 350 370 C349.53230718 367.49020287 349.16482013 364.9709565 348.79296875 362.4453125 C347.64552753 357.45987821 345.79977581 352.78216067 344 348 C343.28255415 346.03302577 342.56641682 344.06557379 341.8515625 342.09765625 C336.68098418 327.89662305 336.68098418 327.89662305 330.19140625 314.26953125 C328.94417002 311.89364846 327.97828276 309.49798156 327 307 C320.17068322 291.19102763 311.4674184 276.36741715 302 262 C301.37738281 261.0409375 300.75476562 260.081875 300.11328125 259.09375 C295.35470473 251.8390243 290.28944123 244.87541632 285 238 C284.57315918 237.44022461 284.14631836 236.88044922 283.70654297 236.30371094 C277.62014524 228.33242148 271.25077405 220.77999678 264.37939453 213.4765625 C262.97729966 211.97570059 261.59366335 210.45975548 260.21484375 208.9375 C252.54984282 200.47627507 244.74377426 192.19471009 236.05078125 184.7734375 C233.71467627 182.75326291 231.45713186 180.65699492 229.1875 178.5625 C225.0132586 174.79998196 220.67776939 171.46361766 216.09375 168.21875 C213.81254901 166.58273717 211.57168262 164.92436647 209.34375 163.21875 C200.47903919 156.43711894 191.41006466 150.16274015 181.95605469 144.22998047 C180.16391037 143.10306795 178.38170444 141.96214152 176.6015625 140.81640625 C168.35103851 135.59107439 159.78308908 131.2314941 151 127 C150.00693848 126.51917969 149.01387695 126.03835938 147.99072266 125.54296875 C121.17632609 110.81457963 121.17632609 110.81457963 92 104 C92 103.34 92 102.68 92 102 C91.175 101.82984375 90.35 101.6596875 89.5 101.484375 C82.96273795 100.11271734 76.47193745 98.64913736 70 97 C63.82252985 95.42926793 57.62943546 94.00812773 51.38671875 92.71484375 C49.21636014 92.25674037 47.05133652 91.77208211 44.89453125 91.25390625 C22.62127858 86.01792846 -0.56859744 84.78374438 -23.375 84.8125 C-24.70325806 84.81340637 -24.70325806 84.81340637 -26.05834961 84.81433105 C-46.31071641 84.85179821 -65.73326153 86.52547023 -85.6796875 90.09765625 Z " fill="#070707" transform="translate(984,270)"/>
<path d="M0 0 C19.73251665 1.90088008 41.6727244 13.15848679 54.20849609 28.30908203 C58.59413831 34.26335932 62.5528595 40.38507408 65.20849609 47.30908203 C67.37654952 51.83419867 69.64751822 56.30607569 71.92236328 60.77832031 C72.82726395 62.55892022 73.7286393 64.34131392 74.62744141 66.125 C82.76682742 82.43441956 82.76682742 82.43441956 93.20849609 97.30908203 C93.86076172 98.16115234 94.51302734 99.01322266 95.18505859 99.89111328 C102.85131255 109.05213877 114.8439259 111.65976458 126.20849609 113.30908203 C135.98012987 113.82048608 145.42883 112.86102954 155.08349609 111.43408203 C156.96294922 111.17304687 156.96294922 111.17304687 158.88037109 110.90673828 C165.11200986 110.01744522 171.1279332 108.92243094 177.20849609 107.30908203 C179.26558318 106.94382859 181.32832442 106.60866706 183.39599609 106.30908203 C184.37955078 106.16470703 185.36310547 106.02033203 186.37646484 105.87158203 C187.64103516 105.68595703 188.90560547 105.50033203 190.20849609 105.30908203 C191.1454834 105.1444043 192.0824707 104.97972656 193.04785156 104.81005859 C201.0744042 103.44740281 208.82466608 103.00381252 216.95849609 103.05908203 C218.11220703 103.05134766 219.26591797 103.04361328 220.45458984 103.03564453 C241.12245996 103.08277764 256.37018597 112.32202991 271.93383789 125.18017578 C276.78760118 129.18583681 281.72819915 133.04429065 286.77099609 136.80908203 C287.41319092 137.28885498 288.05538574 137.76862793 288.71704102 138.26293945 C292.84455998 141.33015854 297.01635321 144.33088014 301.20849609 147.30908203 C300.6249565 151.19068173 299.47735361 153.94751694 297.47021484 157.30908203 C296.62040039 158.74670898 296.62040039 158.74670898 295.75341797 160.21337891 C295.14046875 161.23496094 294.52751953 162.25654297 293.89599609 163.30908203 C292.60738664 165.48566293 291.31964075 167.6627553 290.03271484 169.84033203 C289.06277588 171.47615234 289.06277588 171.47615234 288.07324219 173.14501953 C285.40456271 177.67317953 282.80300895 182.23815437 280.20849609 186.80908203 C275.33975073 195.36464061 270.38956981 203.87069618 265.41943359 212.36767578 C261.14761957 219.6786879 256.93367901 227.02079969 252.74536133 234.37988281 C248.96671201 241.00858852 245.12666868 247.59993444 241.27099609 254.18408203 C236.6585291 262.06205159 232.11749605 269.97528529 227.64599609 277.93408203 C222.90657506 286.36848684 218.03735883 294.71528719 213.08984375 303.02905273 C208.57266818 310.64097701 204.21120223 318.3348264 199.87475586 326.05078125 C196.30323191 332.39739176 192.65894792 338.69401906 188.94604492 344.95874023 C185.64241258 350.54299187 182.41829591 356.17045063 179.20849609 361.80908203 C175.58697806 368.16985772 171.9353027 374.50939746 168.20849609 380.80908203 C164.56781498 386.9645731 160.99667619 393.15662638 157.45849609 399.37158203 C153.17245468 406.89975296 148.83482776 414.39555435 144.45849609 421.87158203 C138.88203715 431.39985001 133.38769101 440.97249356 127.9225769 450.56481934 C123.62513292 458.10600525 119.28551982 465.61839079 114.85717773 473.08349609 C111.45424458 478.84176083 108.17312465 484.66601004 104.89599609 490.49658203 C100.07733614 499.06788941 95.13528091 507.55519121 90.10400391 516.00317383 C85.45090671 523.83993197 80.95976441 531.76323789 76.52099609 539.72314453 C73.91204255 544.38341269 71.25719425 548.92246597 68.20849609 553.30908203 C64.80550465 551.04042107 64.37606153 549.49130399 63.07226562 545.74926758 C59.19110527 534.78482504 53.99886665 524.314951 49.02490234 513.81884766 C45.8337339 507.01978172 42.92845052 500.20880858 40.36669922 493.14672852 C39.21591622 490.32726164 37.81217042 487.89134404 36.20849609 485.30908203 C35.46004836 483.47074144 34.7550142 481.61439722 34.08349609 479.74658203 C29.05757763 466.3794555 22.80942804 453.478206 16.71630859 440.57080078 C14.262799 435.26333833 12.01920347 429.87405089 9.8112793 424.46118164 C3.33688336 408.43159262 3.33688336 408.43159262 -4.04150391 392.80908203 C-5.58479303 389.72250379 -6.8395128 386.70696982 -7.98291016 383.46142578 C-9.14613847 380.36510306 -10.48333301 377.34649752 -11.79150391 374.30908203 C-33.03405022 373.768967 -54.08354958 375.25411915 -75.25799942 376.73223114 C-80.19800699 377.07506882 -85.13869551 377.4077847 -90.0793457 377.74121094 C-97.32279177 378.23080605 -104.56604576 378.72307826 -111.809062 379.21899223 C-131.02964376 380.5348046 -150.25276376 381.81191275 -169.47650146 383.08068657 C-175.51994999 383.47964512 -181.56322289 383.88113017 -187.60634899 384.28494263 C-191.35707002 384.53525729 -195.10789673 384.78395993 -198.8587513 385.03226471 C-200.59733594 385.14768906 -202.33587671 385.26377637 -204.07436943 385.38057709 C-206.4497716 385.54005299 -208.82532358 385.69708171 -211.20092773 385.85351562 C-211.88751654 385.900207 -212.57410534 385.94689838 -213.28149986 385.99500465 C-217.12525817 386.24518752 -220.93992407 386.35250384 -224.79150391 386.30908203 C-224.11298559 382.35377258 -222.21361776 379.35320411 -220.18603516 375.92626953 C-219.64350349 375.00480637 -219.64350349 375.00480637 -219.0900116 374.06472778 C-217.93268398 372.10170746 -216.76843599 370.14289465 -215.60400391 368.18408203 C-214.83988045 366.89007776 -214.07620418 365.5958093 -213.31298828 364.30126953 C-210.1084791 358.87261072 -206.88427325 353.45728544 -203.61572266 348.06689453 C-201.06930232 343.8354904 -198.7057621 339.51983356 -196.35888672 335.17529297 C-193.55227053 330.04294498 -190.6014977 324.99374364 -187.66650391 319.93408203 C-186.33669421 317.636125 -185.00717497 315.33800341 -183.67822266 313.03955078 C-183.02257324 311.90565918 -182.36692383 310.77176758 -181.69140625 309.60351562 C-178.93705481 304.82746598 -176.20734527 300.03752081 -173.47900391 295.24658203 C-170.04418603 289.21958703 -166.57564463 283.21585878 -163.04150391 277.24658203 C-158.56706677 269.68731318 -154.20548534 262.06454556 -149.85400391 254.43408203 C-144.48145145 245.01349671 -139.08570371 235.6073691 -133.64306641 226.22705078 C-130.12043342 220.15577886 -126.61220907 214.07619879 -123.10400391 207.99658203 C-122.49806396 206.94712402 -121.89212402 205.89766602 -121.26782227 204.81640625 C-118.45839921 199.94724753 -115.65537959 195.07468694 -112.87098694 190.19116211 C-108.70705229 182.88871802 -104.5001958 175.61233409 -100.25439453 168.35717773 C-99.52432087 167.10854861 -98.79549517 165.85918903 -98.06787109 164.60913086 C-91.23169294 152.86496638 -91.23169294 152.86496638 -87.49462891 147.37939453 C-85.00593137 143.72155845 -83.03529861 139.99857871 -81.16650391 135.99658203 C-77.69068778 128.81471226 -73.71285301 122.0262346 -69.56201172 115.21704102 C-65.71980389 108.89912841 -62.03321115 102.50852025 -58.41650391 96.05908203 C-53.98435956 88.16409701 -49.49012035 80.31051118 -44.91650391 72.49658203 C-40.03569043 64.1575924 -35.17922628 55.80537816 -30.35400391 47.43408203 C-29.43119629 45.83367065 -29.43119629 45.83367065 -28.48974609 44.20092773 C-25.56313645 39.12358789 -22.63906381 34.04479859 -19.71842957 28.96401978 C-18.69501136 27.18406863 -17.67097378 25.40447534 -16.64672852 23.625 C-15.36371763 21.39558866 -14.08190303 19.16548827 -12.80151367 16.93457031 C-11.65761915 14.94756502 -10.50601047 12.96497233 -9.34521484 10.98779297 C-8.35197179 9.27536953 -7.38834899 7.54519394 -6.46435547 5.79443359 C-5.85672363 4.69180176 -5.85672363 4.69180176 -5.23681641 3.56689453 C-4.90439941 2.93154785 -4.57198242 2.29620117 -4.22949219 1.64160156 C-2.79150391 0.30908203 -2.79150391 0.30908203 0 0 Z " fill="#060606" transform="translate(620.79150390625,1104.69091796875)"/>
<path d="M0 0 C0.3403125 0.61593018 0.680625 1.23186035 1.03125 1.86645508 C8.48810226 15.33613817 16.12374407 28.663149 24.01977539 41.88110352 C29.23792121 50.64417505 34.24943645 59.50945528 39.20092773 68.42529297 C42.56528518 74.47271701 46.01410266 80.4463128 49.61694336 86.35400391 C52.86636818 91.70990658 55.93438266 97.16226408 59 102.625 C64.45457897 112.34363892 70.06734685 121.96064203 75.72903442 131.55923462 C80.72593787 140.03739242 85.56680333 148.58316675 90.25048828 157.23901367 C93.36501256 162.95413594 96.73471746 168.45564089 100.23876953 173.93823242 C103.99554027 179.86884828 107.34385632 185.99275806 110.68798828 192.1628418 C114.11690886 198.46233381 117.70226481 204.65231394 121.375 210.8125 C125.85070709 218.32086504 130.22238457 225.87701208 134.5 233.5 C139.32604187 242.0990497 144.28951757 250.60501831 149.33374023 259.07763672 C152.67581203 264.70868088 155.91429079 270.38355028 159.0625 276.125 C162.97277493 283.25401197 167.10680579 290.22454887 171.32177734 297.17700195 C175.81634291 304.62179864 180.09089644 312.18155859 184.34375 319.76635742 C187.41511936 325.23259737 190.54796965 330.64703026 193.8125 336 C196.71028773 340.7532573 199.41619014 345.56906515 202 350.5 C206.69791758 359.4612106 211.8930989 368.1138042 217.3125 376.65625 C217.68052734 377.24067871 218.04855469 377.82510742 218.42773438 378.42724609 C219.43436165 380.02107262 220.45120821 381.60843185 221.46875 383.1953125 C222.95268715 385.91334023 223.47572034 387.98539197 224 391 C213.88961222 391.20777141 203.89897763 390.63523055 193.81799316 389.94650269 C188.68530467 389.5963588 183.55164187 389.26113189 178.41796875 388.92578125 C177.29854889 388.85247086 176.17912903 388.77916046 175.02578735 388.70362854 C165.59872793 388.09166278 156.16919336 387.52903004 146.73828125 386.98046875 C145.99660643 386.93726879 145.2549316 386.89406883 144.49078178 386.84955978 C137.800565 386.46009435 131.11025534 386.07226365 124.41964722 385.6895752 C109.06952644 384.81131911 93.73085205 383.86418722 78.39950562 382.69410706 C69.20760822 381.99839818 60.01419021 381.44397936 50.80712891 380.99462891 C48.33594803 380.87307915 45.86527577 380.74337134 43.39453125 380.61328125 C32.92087898 380.08082745 22.48640387 379.8938043 12 380 C9.18299013 386.14184504 6.68627057 392.35235566 4.34375 398.69140625 C3.07315317 401.81988157 1.64122731 404.77437088 0.11083984 407.77954102 C-2.0156956 412.03027504 -3.96911322 416.36183999 -5.9375 420.6875 C-6.37989014 421.65921143 -6.82228027 422.63092285 -7.27807617 423.63208008 C-9.99162969 429.64034108 -12.54296692 435.64835268 -14.76953125 441.85546875 C-16.64939893 446.65957503 -18.84656517 451.31336273 -21 456 C-23.07160958 460.54182322 -25.13303977 465.08827753 -27.19384766 469.63500977 C-27.81724801 471.00913843 -28.44160523 472.38283337 -29.06689453 473.75610352 C-32.25875046 480.76770783 -35.37178005 487.75300664 -38 495 C-38.61569417 496.30630171 -39.25441349 497.60264144 -39.9375 498.875 C-41.36475928 501.63550322 -42.5824712 504.40027723 -43.6953125 507.30078125 C-45.43301184 511.69194547 -47.31979119 516.00408495 -49.27734375 520.30078125 C-49.57275558 520.94942139 -49.86816742 521.59806152 -50.17253113 522.26635742 C-51.39886812 524.95369284 -52.62848871 527.63950397 -53.86108398 530.32397461 C-54.77404708 532.3147245 -55.68318972 534.30715049 -56.58984375 536.30078125 C-56.88378021 536.94588654 -57.17771667 537.59099182 -57.4805603 538.25564575 C-59.87901276 543.58504495 -61.92617549 548.99633575 -63.86157227 554.51245117 C-65 557 -65 557 -68 559 C-72.5746996 551.72036904 -76.96464849 544.37413985 -81.14794922 536.86376953 C-84.88788069 530.16325499 -88.722371 523.51849388 -92.5625 516.875 C-100.58011012 503.00164483 -100.58011012 503.00164483 -104 497 C-111.91684683 483.11958951 -119.87083664 469.25731178 -128 455.5 C-138.16200094 438.302435 -148.08688181 420.95963391 -157.9375 403.58203125 C-161.25733258 397.73505249 -164.63213182 391.93344698 -168.125 386.1875 C-172.16433921 379.52807296 -175.96452665 372.74379868 -179.75 365.9375 C-184.84878268 356.77087 -190.08296651 347.70066885 -195.44946289 338.68847656 C-198.97711898 332.75685641 -202.40682302 326.78094333 -205.765625 320.75244141 C-208.3827649 316.06618496 -211.07891781 311.43170041 -213.8125 306.8125 C-218.03500573 299.67619439 -222.16034006 292.48812357 -226.26147461 285.28149414 C-230.08408699 278.57544308 -233.97062716 271.9087087 -237.875 265.25 C-242.72674131 256.97149028 -247.46315665 248.63681384 -252.125 240.25 C-256.77735167 231.88336951 -261.56905128 223.62690987 -266.53833008 215.44506836 C-270.81945121 208.37071203 -274.87711563 201.18123939 -278.90307617 193.95922852 C-281.89872053 188.61677844 -284.9823076 183.34194579 -288.19140625 178.125 C-288.54094864 177.5542424 -288.89049103 176.9834848 -289.25062561 176.39543152 C-290.95691877 173.61082233 -292.67540015 170.83531775 -294.4152832 168.0715332 C-295.02847412 167.07468506 -295.64166504 166.07783691 -296.2734375 165.05078125 C-296.82435059 164.17075439 -297.37526367 163.29072754 -297.94287109 162.3840332 C-299 160 -299 160 -298.8671875 157.81469727 C-297.2984264 154.53187034 -293.71996162 153.27865533 -290.625 151.625 C-283.97436088 147.89719931 -277.78102089 143.8307959 -271.6875 139.25 C-270.90221924 138.6614624 -270.11693848 138.0729248 -269.30786133 137.46655273 C-267.69427314 136.25681122 -266.08091248 135.04676615 -264.46777344 133.83642578 C-252.17849627 124.69119994 -239.72911366 115.85702164 -226 109 C-224.62521484 108.29037109 -224.62521484 108.29037109 -223.22265625 107.56640625 C-205.92201438 100.22443048 -183.79954513 105.36572406 -166.25927734 109.27685547 C-161.82729965 110.26019015 -157.38194446 111.1743555 -152.93579102 112.09106445 C-149.92912914 112.71294969 -146.92543871 113.34772886 -143.921875 113.984375 C-127.46510883 117.39748328 -110.76552476 118.36000095 -96.0625 109.0625 C-92.69792506 106.63855892 -89.79345261 104.07996057 -87 101 C-86.14535156 100.13375 -86.14535156 100.13375 -85.2734375 99.25 C-74.58462347 88.00758206 -67.78590627 73.86533189 -60.58557129 60.28204346 C-28.60408275 0 -28.60408275 0 0 0 Z " fill="#060606" transform="translate(1299,1099)"/>
<path d="M0 0 C1.32377151 -0.00009064 1.32377151 -0.00009064 2.67428589 -0.00018311 C16.41974532 0.01320477 29.96917487 0.52759273 43.625 2.1875 C44.88957031 2.32027344 46.15414063 2.45304687 47.45703125 2.58984375 C62.91129609 4.37892623 78.23239871 7.86548344 93.375 11.375 C94.04708496 11.52952637 94.71916992 11.68405273 95.41162109 11.84326172 C98.09951975 12.48443102 100.64937282 13.1973153 103.21484375 14.23046875 C105.94392333 15.31413892 108.54486541 15.82458573 111.4375 16.3125 C112.41332031 16.48007812 113.38914062 16.64765625 114.39453125 16.8203125 C115.13058594 16.94148438 115.86664062 17.06265625 116.625 17.1875 C116.625 17.8475 116.625 18.5075 116.625 19.1875 C117.79546875 19.30609375 118.9659375 19.4246875 120.171875 19.546875 C136.37013187 21.6053739 151.81177374 30.72566436 166.38964844 37.65576172 C169.20258787 38.98751406 172.02290105 40.29974056 174.8515625 41.59765625 C175.60953125 41.94715332 176.3675 42.29665039 177.1484375 42.65673828 C178.47234113 43.26670596 179.79767305 43.87359222 181.125 44.47607422 C204.67495588 55.43477367 226.42354266 71.9890132 246.625 88.1875 C247.64078125 88.99574219 248.6565625 89.80398438 249.703125 90.63671875 C254.37561794 94.39641594 258.80260146 98.21380788 262.96875 102.52734375 C264.68011835 104.24274835 266.46689408 105.80547857 268.3125 107.375 C276.04914172 114.05801347 283.30681356 121.42203121 289.92578125 129.2109375 C291.89736221 131.50431673 293.94970132 133.71428456 296 135.9375 C300.06562942 140.44340063 303.71510496 145.16435031 307.3046875 150.0546875 C308.88855386 152.19317373 310.48361273 154.29687315 312.1328125 156.3828125 C317.46491293 163.13442521 322.16399473 170.02451688 326.56689453 177.43359375 C328.10053147 179.97573676 329.6958704 182.4775615 331.28637695 184.984375 C338.30841706 196.07562488 345.15251076 207.32437628 350.39453125 219.3828125 C351.5608738 222.04133299 352.79894812 224.65794766 354.0546875 227.27514648 C360.52683111 240.83693634 366.04370579 254.80897441 370.6171875 269.12109375 C371.56990074 272.1472756 371.56990074 272.1472756 372.7265625 274.85546875 C373.75485401 277.52455584 374.04347924 280.08832694 374.28125 282.9296875 C374.65454889 285.38158246 375.31248934 287.69206053 376.01416016 290.06787109 C380.08763886 304.20293988 383.62582055 318.60727742 385.625 333.1875 C385.82802734 334.58452148 385.82802734 334.58452148 386.03515625 336.00976562 C388.54075342 353.92139946 388.89636792 371.68559529 388.875 389.75 C388.87383682 391.41902374 388.87383682 391.41902374 388.87265015 393.12176514 C388.79575365 431.19852084 382.09716063 467.63304071 371.625 504.1875 C371.31602783 505.2700708 371.00705566 506.3526416 370.6887207 507.46801758 C368.27754368 515.62185463 365.23767326 523.41828489 361.9375 531.25 C361.39956903 532.53214191 360.86164597 533.81428715 360.32373047 535.09643555 C359.25558692 537.63628228 358.18174443 540.17361116 357.10302734 542.70898438 C356.20170939 544.83022293 355.30499792 546.95343629 354.41650391 549.08007812 C332.00095886 602.65131321 291.27737159 654.44417031 245.625 690.1875 C244.24200682 691.28883565 242.85921073 692.39041882 241.4765625 693.4921875 C218.7122015 711.52950931 193.96803545 726.39050708 167.8125 739 C167.18215851 739.30397705 166.55181702 739.6079541 165.90237427 739.92114258 C148.60331345 748.23841233 131.28192934 755.42693527 112.7734375 760.58056641 C110.92427736 761.10295415 109.08586869 761.66313433 107.25 762.23046875 C86.26374411 768.65750962 64.3387273 772.27339468 42.625 775.1875 C41.80241699 775.30609375 40.97983398 775.4246875 40.13232422 775.546875 C13.9444374 779.2447653 -15.23122279 779.19595881 -41.375 775.1875 C-42.01653015 775.09041748 -42.6580603 774.99333496 -43.31903076 774.89331055 C-48.78036251 774.06457661 -54.23525015 773.19892189 -59.6875 772.3125 C-60.82647736 772.12817413 -60.82647736 772.12817413 -61.98846436 771.94012451 C-70.60589258 770.53016981 -79.07917094 768.87121964 -87.52841187 766.66011047 C-91.98298031 765.50172914 -96.43975375 764.57522942 -100.96484375 763.73828125 C-108.54255166 762.2640925 -115.67308272 759.95851376 -122.9375 757.375 C-124.13568359 756.96185547 -125.33386719 756.54871094 -126.56835938 756.12304688 C-133.96770923 753.53427164 -141.17062018 750.64924568 -148.34399414 747.50073242 C-150.95921416 746.36764596 -153.58294743 745.31550939 -156.25 744.3125 C-188.51725407 731.47893304 -218.81414372 711.3215469 -245.375 689.1875 C-246.32375 688.424375 -247.2725 687.66125 -248.25 686.875 C-252.98329025 683.06778828 -257.48754756 679.22919659 -261.70703125 674.859375 C-263.48300591 673.07924115 -265.34048949 671.44815144 -267.25 669.8125 C-273.83379321 664.12012947 -279.86551561 657.92785245 -285.51953125 651.31640625 C-286.84233343 649.7986648 -288.1978149 648.30914875 -289.57421875 646.83984375 C-297.14421956 638.75786221 -303.76607992 630.06023676 -310.375 621.1875 C-311.49068359 619.69863281 -311.49068359 619.69863281 -312.62890625 618.1796875 C-332.38234064 591.44271569 -347.41735274 562.70416185 -360.375 532.1875 C-360.92438232 530.91108643 -360.92438232 530.91108643 -361.48486328 529.60888672 C-373.06415902 502.40558677 -379.77819476 472.30059983 -384.375 443.1875 C-384.63966064 441.51518311 -384.63966064 441.51518311 -384.90966797 439.80908203 C-392.36650757 389.78396083 -390.77253432 327.60356012 -372.10742188 280.18115234 C-371.00595298 277.18295401 -370.2117619 274.11560089 -369.38452148 271.0324707 C-365.52939335 256.68005146 -360.51753505 242.66217663 -353.53564453 229.51049805 C-352.38813278 227.2137849 -351.45032226 224.91338439 -350.53515625 222.515625 C-338.576629 192.30606776 -318.48690065 164.83244212 -297.85888672 139.98876953 C-296.43062409 138.25502131 -295.02571032 136.50524013 -293.62890625 134.74609375 C-292.42041016 133.23208984 -292.42041016 133.23208984 -291.1875 131.6875 C-290.49269531 130.8109375 -289.79789063 129.934375 -289.08203125 129.03125 C-288.51871094 128.4228125 -287.95539063 127.814375 -287.375 127.1875 C-286.715 127.1875 -286.055 127.1875 -285.375 127.1875 C-285.1378125 126.62579102 -284.900625 126.06408203 -284.65625 125.48535156 C-283.08180643 122.66167342 -281.15815455 120.71135158 -278.875 118.421875 C-277.988125 117.53242188 -277.10125 116.64296875 -276.1875 115.7265625 C-275.259375 114.80617188 -274.33125 113.88578125 -273.375 112.9375 C-272.446875 112.00164062 -271.51875 111.06578125 -270.5625 110.1015625 C-269.675625 109.21726562 -268.78875 108.33296875 -267.875 107.421875 C-267.0603125 106.60944336 -266.245625 105.79701172 -265.40625 104.95996094 C-263.375 103.1875 -263.375 103.1875 -261.375 103.1875 C-261.375 102.5275 -261.375 101.8675 -261.375 101.1875 C-259.76117052 99.73090023 -258.08136784 98.34701049 -256.375 97 C-253.07005887 94.36107362 -249.81160063 91.72530305 -246.6875 88.875 C-230.27503421 74.40127762 -211.42491301 62.54944409 -192.61328125 51.50634766 C-190.64031728 50.34383114 -188.6773253 49.16699842 -186.71875 47.98046875 C-182.03542094 45.17165397 -177.58332431 42.68888817 -172.39599609 40.96826172 C-170.28280135 40.15188134 -168.48125862 39.13807843 -166.53515625 37.98046875 C-160.87384444 34.78966307 -154.9187803 32.34986315 -148.91015625 29.90307617 C-147.00789935 29.12821769 -145.10920713 28.34511594 -143.2109375 27.56054688 C-128.10446459 21.34194017 -113.11829649 16.28726993 -97.0859375 13.03125 C-94.48868266 12.44071627 -92.01433542 11.80671536 -89.4765625 11.03125 C-76.66412868 7.12426535 -63.75550572 5.29469545 -50.48632812 3.58984375 C-47.88903644 3.25397301 -45.29571015 2.90128474 -42.703125 2.53125 C-28.45250013 0.5207884 -14.36845533 -0.01511143 0 0 Z M-89.32275391 61.5246582 C-91.60895858 62.26306478 -93.86329276 62.70747558 -96.2265625 63.13671875 C-101.94083322 64.21378287 -107.29022993 66.02191175 -112.75 68 C-114.34956543 68.57790283 -114.34956543 68.57790283 -115.98144531 69.16748047 C-137.48869928 77.14778725 -158.35543363 87.36669239 -177.8125 99.5 C-178.71427979 100.06122559 -179.61605957 100.62245117 -180.54516602 101.20068359 C-195.99700827 110.89893098 -210.73892165 121.7980579 -224.16796875 134.1640625 C-226.09630517 135.93198863 -228.06347978 137.62596046 -230.0625 139.3125 C-239.50989528 147.56936986 -248.44596988 156.59917281 -256.20703125 166.45703125 C-258.21420186 168.98498127 -260.28853746 171.4269856 -262.40136719 173.86572266 C-279.2862152 193.42059681 -293.19676963 215.94621891 -304.375 239.1875 C-305.15423828 240.77304687 -305.15423828 240.77304687 -305.94921875 242.390625 C-317.48417564 266.37473116 -326.15489454 291.09897293 -331.375 317.1875 C-331.5100293 317.86232422 -331.64505859 318.53714844 -331.78417969 319.23242188 C-332.56596491 323.18960635 -333.30241004 327.15343401 -334.00732422 331.125 C-334.26000245 332.54241414 -334.51708204 333.95904852 -334.77783203 335.375 C-335.19493488 337.64419706 -335.59880286 339.91544171 -336 342.1875 C-336.12318604 342.85007812 -336.24637207 343.51265625 -336.37329102 344.1953125 C-344.42156212 391.00543665 -338.05636474 442.38107014 -323.96630859 487.27685547 C-323.37766438 489.17889081 -322.82348871 491.09148068 -322.26953125 493.00390625 C-316.1086762 514.09473612 -306.52287311 533.76515608 -296.375 553.1875 C-295.88926514 554.12102295 -295.40353027 555.0545459 -294.90307617 556.01635742 C-291.35896956 562.68362312 -287.35821381 568.91965264 -283.0625 575.125 C-282.40241943 576.0850293 -281.74233887 577.04505859 -281.06225586 578.03417969 C-276.3307638 584.88408583 -271.50048361 591.6252506 -266.375 598.1875 C-265.73691406 599.01765625 -265.09882812 599.8478125 -264.44140625 600.703125 C-259.89143234 606.52562682 -254.99770255 611.9622626 -249.97265625 617.37109375 C-247.85090349 619.67152043 -245.78578116 621.99913475 -243.75 624.375 C-237.43411448 631.61881183 -230.60109808 637.96047045 -223.09765625 643.95703125 C-220.58937935 646.01187503 -218.23555283 648.15402769 -215.875 650.375 C-204.49856376 660.71721476 -191.5842414 669.38515016 -178.375 677.1875 C-176.33284565 678.47839549 -174.29119363 679.77008594 -172.25 681.0625 C-149.06323821 695.23371945 -122.67785999 708.49885653 -95.94921875 714.1484375 C-92.8634125 714.80624654 -89.93022761 715.62713012 -86.94921875 716.66015625 C-68.54122661 722.99498699 -48.61526738 724.92203538 -29.375 727.1875 C-28.5694165 727.29352539 -27.76383301 727.39955078 -26.93383789 727.50878906 C28.72334889 734.21288193 89.06999014 721.17849204 139.625 698.1875 C140.91374023 697.60355469 140.91374023 697.60355469 142.22851562 697.0078125 C174.61096958 682.22801069 204.03307648 662.91861611 230.0390625 638.5859375 C232.14754644 636.63033457 234.2899734 634.77452633 236.5 632.9375 C246.58387898 624.1798932 255.37958894 613.6443801 263.625 603.1875 C264.49276991 602.11139843 265.36129709 601.03590719 266.23046875 599.9609375 C283.77579712 579.7537548 283.77579712 579.7537548 294.625 556.1875 C295.285 556.1875 295.945 556.1875 296.625 556.1875 C305.7204296 537.2325359 305.7204296 537.2325359 314.625 518.1875 C315.01171875 517.36636719 315.3984375 516.54523438 315.796875 515.69921875 C321.38565914 503.59735156 324.50311144 490.60959489 327.92871094 477.77587891 C328.52512848 475.55876151 329.1357339 473.34673484 329.7578125 471.13671875 C337.24100966 444.17953211 339.90275754 417.40132805 339.875 389.5 C339.87431519 388.51412903 339.87363037 387.52825806 339.8729248 386.51251221 C340.05731273 364.81987049 340.05731273 364.81987049 337.10253906 343.41113281 C336.62507546 341.18785138 336.31484696 339.00052985 336.0546875 336.7421875 C332.73693641 308.2382983 324.45569134 280.09357204 312.48242188 254.05371094 C311.64963735 252.24112412 310.83238336 250.42142701 310.015625 248.6015625 C302.16271021 231.36254479 293.32148986 214.83074808 282.625 199.1875 C281.90376953 198.12039795 281.90376953 198.12039795 281.16796875 197.03173828 C275.06091032 188.02221574 268.60958015 179.53063896 261.40625 171.37109375 C258.97567937 168.6178156 256.70016957 165.76860628 254.4375 162.875 C245.51165287 151.90059779 235.13461128 141.78579693 224 133.0703125 C221.76873238 131.30144573 219.70525561 129.44211364 217.625 127.5 C195.97624798 108.1199449 170.4671813 94.04816618 144.625 81.1875 C143.76181152 80.75002441 142.89862305 80.31254883 142.00927734 79.86181641 C128.87287775 73.20495225 114.37992576 66.76695682 99.625 65.1875 C99.625 64.5275 99.625 63.8675 99.625 63.1875 C98.30048828 62.91486328 98.30048828 62.91486328 96.94921875 62.63671875 C95.74910156 62.38535156 94.54898437 62.13398438 93.3125 61.875 C92.14074219 61.63136719 90.96898437 61.38773437 89.76171875 61.13671875 C86.60293323 60.44445754 83.50039632 59.61058037 80.38671875 58.73828125 C28.03608241 44.29935585 -37.67266336 42.85927419 -89.32275391 61.5246582 Z " fill="#FCFCFC" transform="translate(959.375,354.8125)"/>
<path d="M0 0 C2.29000285 0.98009376 3.58005595 2.18553285 5.29952705 3.98442525 C5.90796455 4.61735493 6.51640205 5.25028462 7.14327705 5.902394 C8.58142153 7.48762144 9.94982229 9.13575016 11.29952705 10.79692525 C13.86038651 13.79500461 16.55795546 16.19110036 19.5456208 18.74223775 C25.18520389 23.74463354 30.85698792 29.13369182 35.54952705 35.04692525 C38.01596613 37.97998794 40.68168717 40.30851465 43.5924958 42.7852065 C47.87856515 46.58439017 51.85077205 50.71169218 55.86202705 54.79692525 C54.31170411 58.49324171 52.06428028 60.84328886 49.24306762 63.66198033 C48.7680153 64.13934034 48.29296298 64.61670035 47.80351514 65.10852581 C46.20427188 66.71307918 44.59797192 68.31037641 42.9916352 69.90782613 C41.83453762 71.06579556 40.67787952 72.22420428 39.52162457 73.3830151 C36.33819007 76.57093099 33.14853713 79.75256146 29.95785868 82.93322486 C26.52003111 86.36243165 23.08796862 89.79739961 19.65520942 93.23167866 C13.7053087 99.18262911 7.75175121 105.12990089 1.79570854 111.07470387 C-6.81576937 119.66994156 -15.4217325 128.27068342 -24.02635096 136.87278739 C-37.98624519 150.82830219 -51.95060177 164.77934296 -65.91775811 178.72758931 C-79.48715536 192.27863417 -93.05445465 205.83177382 -106.61892998 219.38774556 C-107.4547633 220.22305343 -108.29059661 221.05836129 -109.15175821 221.91898152 C-113.34479127 226.10940454 -117.53778303 230.29986888 -121.73075426 234.49035376 C-156.52676009 269.26561939 -191.33000562 304.03363266 -226.13797295 338.79692525 C-228.93809448 337.51910199 -230.98837522 336.19598056 -233.1601783 334.02081555 C-234.01858972 333.16837728 -234.01858972 333.16837728 -234.89434278 332.29871804 C-235.51302504 331.67421009 -236.1317073 331.04970215 -236.7691375 330.40626973 C-237.43409068 329.7430254 -238.09904387 329.07978106 -238.78414714 328.39643842 C-241.01527049 326.16861427 -243.23916165 323.93370778 -245.46316826 321.69878072 C-247.05936756 320.1020174 -248.65600714 318.50569411 -250.25305474 316.90977925 C-254.59188045 312.57152841 -258.92450313 308.22712959 -263.25606167 303.8816244 C-267.78220148 299.34299967 -272.31398876 294.81002122 -276.84518731 290.27644795 C-284.45121595 282.66490523 -292.05373926 275.04988129 -299.65359795 267.43217915 C-307.48133183 259.58608594 -315.31116451 251.74209702 -323.14383233 243.90092915 C-323.62667472 243.41756132 -324.10951711 242.93419348 -324.60699108 242.43617813 C-327.02929366 240.01126547 -329.4516376 237.58639412 -331.8740021 235.16154331 C-351.96840796 215.0464056 -372.0554819 194.92395795 -392.13797295 174.79692525 C-390.49353953 171.29763327 -388.61332748 169.06294132 -385.82547295 166.35942525 C-384.61310967 165.17606587 -384.61310967 165.17606587 -383.3762542 163.96880025 C-382.63762139 163.2520815 -381.89898858 162.53536275 -381.13797295 161.79692525 C-379.83859795 160.46661275 -379.83859795 160.46661275 -378.51297295 159.10942525 C-376.64346885 157.28911862 -374.76830205 155.64370198 -372.76297295 153.98442525 C-370.1466902 151.78064496 -367.91170245 149.46857531 -365.70047295 146.85942525 C-362.74231599 143.37065718 -359.53525941 140.47158018 -356.05203545 137.5195815 C-353.62279147 135.33326191 -351.57954879 132.93325962 -349.5012542 130.418019 C-347.52124864 128.06357112 -345.33948317 125.94339771 -343.13797295 123.79692525 C-342.64168389 123.24391743 -342.14539483 122.69090962 -341.6340667 122.121144 C-340.07547295 120.42192525 -340.07547295 120.42192525 -337.13797295 117.79692525 C-333.28448313 117.96438848 -331.34966239 120.21492802 -328.72890007 122.84523457 C-327.85266488 123.71734578 -326.97642968 124.58945698 -326.0736419 125.4879958 C-325.11048969 126.4617653 -324.14748183 127.43567759 -323.18460381 128.40971822 C-322.1649083 129.43026 -321.14455162 130.45014154 -320.12358391 131.4694106 C-317.35248695 134.23964585 -314.59074667 137.01904346 -311.83056629 139.8001501 C-308.9412161 142.70825211 -306.04337016 145.6078628 -303.14641106 148.50838155 C-297.65815383 154.00596912 -292.17758725 159.51115796 -286.69973248 165.01910859 C-280.47556491 171.27673593 -274.24294435 177.52591436 -268.0095644 183.77436298 C-255.70435116 196.10967007 -243.4088339 208.45459591 -231.12014973 220.80636853 C-229.4615241 222.47200624 -227.80095847 224.13564231 -226.13797295 225.79692525 C-225.88432626 225.21864234 -225.63067957 224.64035943 -225.36934662 224.0445528 C-223.99494387 221.53585412 -222.4550046 219.85976093 -220.43599427 217.83488435 C-219.66116515 217.05298963 -218.88633603 216.27109492 -218.08802724 215.46550643 C-217.23279088 214.61268516 -216.37755452 213.75986388 -215.49640191 212.88119954 C-214.5909667 211.97052765 -213.68553149 211.05985576 -212.75265884 210.12158775 C-210.23827037 207.59301058 -207.71764557 205.07073135 -205.19593418 202.54945999 C-202.47793609 199.82981456 -199.76565935 197.10447322 -197.05258477 194.3799178 C-191.12006216 188.42454401 -185.18008232 182.4766453 -179.23865283 176.53015941 C-175.53108371 172.81933483 -171.82515014 169.1068799 -168.11956704 165.39407223 C-157.86479459 155.11973737 -147.60844712 144.84698237 -137.3453418 134.58097047 C-136.68860859 133.92404969 -136.03187539 133.26712891 -135.35524117 132.59030144 C-134.02383205 131.25852606 -132.69242164 129.92675196 -131.36100997 128.59497913 C-130.70007865 127.933865 -130.03914733 127.27275087 -129.35818779 126.59160298 C-128.69645156 125.9296862 -128.03471533 125.26776941 -127.35292648 124.58579455 C-116.61821372 113.84753617 -105.8953023 103.09757649 -95.17751254 92.34242984 C-84.18049375 81.30738703 -73.17419864 70.28167028 -62.15830231 59.26547146 C-55.97055562 53.07713903 -49.78685945 46.88487556 -43.61325753 40.68242902 C-38.35932589 35.40406294 -33.09696654 30.13428765 -27.82325841 24.87567743 C-25.1308506 22.19046993 -22.44271557 19.50131221 -19.76521981 16.80122823 C-16.86800276 13.87980323 -13.95197083 10.97793654 -11.03351128 8.07773274 C-10.18273636 7.21375786 -9.33196145 6.34978297 -8.45540547 5.45962703 C-7.67536086 4.69077106 -6.89531625 3.92191508 -6.09163392 3.12976044 C-5.41985364 2.45716571 -4.74807336 1.78457097 -4.0559361 1.09159458 C-2.13797295 -0.20307475 -2.13797295 -0.20307475 0 0 Z " fill="#FDFDFD" transform="translate(1128.1379729509354,574.2030747532845)"/>
<path d="M0 0 C2.12109375 0.2109375 2.12109375 0.2109375 4 1 C4.495 1.99 4.495 1.99 5 3 C4.278125 3.061875 3.55625 3.12375 2.8125 3.1875 C-0.92067013 4.26597137 -2.31429085 6.19133993 -5 9 C-6.04941774 10.05474219 -7.10162119 11.10671832 -8.15625 12.15625 C-8.70410156 12.70410156 -9.25195312 13.25195312 -9.81640625 13.81640625 C-11.4921875 15.4921875 -13.16796875 17.16796875 -14.84375 18.84375 C-15.64196167 19.64304932 -15.64196167 19.64304932 -16.45629883 20.45849609 C-17.89666807 21.89681515 -19.3445371 23.32761285 -20.79296875 24.7578125 C-23.03118323 26.93802153 -23.03118323 26.93802153 -24.8125 29.375 C-27.27565121 32.33078145 -29.99621522 34.67706134 -32.9140625 37.171875 C-36.09874944 39.96294895 -39.03644304 42.97847616 -42 46 C-42.9075 46.886875 -43.815 47.77375 -44.75 48.6875 C-47.01574021 50.9075808 -47.01574021 50.9075808 -48.6875 53.3125 C-49.120625 53.869375 -49.55375 54.42625 -50 55 C-50.66 55 -51.32 55 -52 55 C-52.33 55.99 -52.66 56.98 -53 58 C-53.66 57.67 -54.32 57.34 -55 57 C-53.4975457 53.4567789 -51.43747735 51.22928476 -48.6875 48.5625 C-47.87925781 47.77359375 -47.07101562 46.9846875 -46.23828125 46.171875 C-45.49964844 45.45515625 -44.76101563 44.7384375 -44 44 C-43.13375 43.113125 -42.2675 42.22625 -41.375 41.3125 C-39.5054959 39.49219337 -37.6303291 37.84677673 -35.625 36.1875 C-33.00871725 33.98371971 -30.7737295 31.67165007 -28.5625 29.0625 C-25.60434304 25.57373193 -22.39728646 22.67465494 -18.9140625 19.72265625 C-16.48481852 17.53633666 -14.44157584 15.13633437 -12.36328125 12.62109375 C-10.38327569 10.26664587 -8.20151022 8.14647247 -6 6 C-5.50371094 5.44699219 -5.00742187 4.89398437 -4.49609375 4.32421875 C-2.9375 2.625 -2.9375 2.625 0 0 Z " fill="#D7D7D7" transform="translate(791,692)"/>
<path d="M0 0 C0.66 0.33 1.32 0.66 2 1 C-1.72346836 5.42094803 -5.29521038 9.57833482 -10 13 C-10.66 12.67 -11.32 12.34 -12 12 C-8.32167983 7.47384007 -4.58913637 3.60575001 0 0 Z " fill="#292929" transform="translate(1274,1109)"/>
<path d="M0 0 C0.66 0.33 1.32 0.66 2 1 C0.04761147 3.00612399 -1.91137822 5.00492433 -3.875 7 C-4.43058594 7.57234375 -4.98617188 8.1446875 -5.55859375 8.734375 C-7.00134404 10.19450782 -8.4974374 11.60149298 -10 13 C-10.66 13 -11.32 13 -12 13 C-10.44997253 9.11602311 -7.99523379 6.97020381 -4.875 4.25 C-3.96492188 3.45078125 -3.05484375 2.6515625 -2.1171875 1.828125 C-1.06917969 0.92320312 -1.06917969 0.92320312 0 0 Z " fill="#2E2E2E" transform="translate(505,606)"/>
<path d="M0 0 C0.99 0.33 1.98 0.66 3 1 C1.38405168 3.04119788 -0.2856382 5.04072937 -2 7 C-2.66 7 -3.32 7 -4 7 C-4.33 7.99 -4.66 8.98 -5 10 C-5.66 9.67 -6.32 9.34 -7 9 C-5.44499019 5.18315774 -2.96404505 2.80804268 0 0 Z " fill="#D1D1D1" transform="translate(743,740)"/>
<path d="M0 0 C1.65 1.65 3.3 3.3 5 5 C4.01 5.495 4.01 5.495 3 6 C3.33 7.32 3.66 8.64 4 10 C1.5 7.75 1.5 7.75 -1 5 C-1 1 -1 1 0 0 Z " fill="#191919" transform="translate(1161,601)"/>
<path d="M0 0 C1.65 1.65 3.3 3.3 5 5 C4.01 5.495 4.01 5.495 3 6 C3.33 7.32 3.66 8.64 4 10 C1.5 7.75 1.5 7.75 -1 5 C-1 1 -1 1 0 0 Z " fill="#191919" transform="translate(1137,577)"/>
<path d="M0 0 C1.828125 0.83984375 1.828125 0.83984375 2.828125 2.83984375 C1.714375 2.96359375 1.714375 2.96359375 0.578125 3.08984375 C-2.68408854 3.97953835 -3.98142378 5.32488124 -6.171875 7.83984375 C-7.161875 7.50984375 -8.151875 7.17984375 -9.171875 6.83984375 C-8.10471428 5.63778911 -7.01749163 4.45352042 -5.921875 3.27734375 C-5.31859375 2.61605469 -4.7153125 1.95476563 -4.09375 1.2734375 C-2.171875 -0.16015625 -2.171875 -0.16015625 0 0 Z " fill="#C8C8C8" transform="translate(793.171875,692.16015625)"/>
<path d="M0 0 C0.33 0.66 0.66 1.32 1 2 C6.28 2 11.56 2 17 2 C17 2.33 17 2.66 17 3 C11.06 3.33 5.12 3.66 -1 4 C-0.67 2.68 -0.34 1.36 0 0 Z " fill="#666666" transform="translate(397,1487)"/>
<path d="M0 0 C0.99 0.33 1.98 0.66 3 1 C1.02 3.31 -0.96 5.62 -3 8 C-4.32 7.67 -5.64 7.34 -7 7 C-4.69 4.69 -2.38 2.38 0 0 Z " fill="#CFCFCF" transform="translate(767,716)"/>
<path d="M0 0 C0 3 0 3 -1.75 5.04296875 C-2.4925 5.75066406 -3.235 6.45835937 -4 7.1875 C-4.7425 7.90292969 -5.485 8.61835938 -6.25 9.35546875 C-7.11625 10.16951172 -7.11625 10.16951172 -8 11 C-8.66 10.67 -9.32 10.34 -10 10 C-8.7121669 8.51749445 -7.41960936 7.03909182 -6.125 5.5625 C-5.40570312 4.73878906 -4.68640625 3.91507812 -3.9453125 3.06640625 C-2 1 -2 1 0 0 Z " fill="#323232" transform="translate(734,317)"/>
<path d="M0 0 C0.66 0.33 1.32 0.66 2 1 C1.54625 1.391875 1.0925 1.78375 0.625 2.1875 C-1.27642919 4.30832487 -2.06204028 6.33042235 -3 9 C-3.66 8.67 -4.32 8.34 -5 8 C-5 7.34 -5 6.68 -5 6 C-5.66 5.67 -6.32 5.34 -7 5 C-4.69 3.35 -2.38 1.7 0 0 Z " fill="#272727" transform="translate(881,301)"/>
<path d="M0 0 C0.99 0.33 1.98 0.66 3 1 C1.63055898 3.94956528 0.12169591 6.52468811 -2 9 C-2.66 9 -3.32 9 -4 9 C-2.80100302 5.9168649 -1.52299523 2.93720508 0 0 Z " fill="#2E2E2E" transform="translate(547,1227)"/>
<path d="M0 0 C0.66 0.66 1.32 1.32 2 2 C-2.82142857 7.22321429 -2.82142857 7.22321429 -7 8 C-6.02133662 6.85373678 -5.04205413 5.70800212 -4.0625 4.5625 C-3.51722656 3.92441406 -2.97195313 3.28632812 -2.41015625 2.62890625 C-1.63204305 1.73008851 -0.84063472 0.84063472 0 0 Z " fill="#343434" transform="translate(1248,1003)"/>
<path d="M0 0 C0.66 0.99 1.32 1.98 2 3 C-0.64 5.31 -3.28 7.62 -6 10 C-6.66 9.67 -7.32 9.34 -8 9 C-5.36 6.03 -2.72 3.06 0 0 Z " fill="#282828" transform="translate(548,569)"/>
<path d="M0 0 C0.33 0.66 0.66 1.32 1 2 C1.66 2.33 2.32 2.66 3 3 C-0.75 6 -0.75 6 -3 6 C-3 6.66 -3 7.32 -3 8 C-3.66 7.67 -4.32 7.34 -5 7 C-3.35 4.69 -1.7 2.38 0 0 Z " fill="#252525" transform="translate(723,329)"/>
<path d="M0 0 C0.66 0.66 1.32 1.32 2 2 C0.08864614 5.53600465 -1.62642766 7.78972846 -5 10 C-3.66511872 6.40608886 -2.03977277 3.24509304 0 0 Z " fill="#303030" transform="translate(474,1354)"/>
<path d="M0 0 C0.66 0.33 1.32 0.66 2 1 C-1.08290155 5.22797927 -1.08290155 5.22797927 -3 7 C-5.8125 7.375 -5.8125 7.375 -8 7 C-5.4837822 4.39391727 -2.94865641 2.10618315 0 0 Z " fill="#2D2D2D" transform="translate(1030,1236)"/>
<path d="M0 0 C0.33 0.66 0.66 1.32 1 2 C-3.82142857 8.29464286 -3.82142857 8.29464286 -8 9 C-7.04270084 7.87411986 -6.08412105 6.7493285 -5.125 5.625 C-4.59132813 4.99851562 -4.05765625 4.37203125 -3.5078125 3.7265625 C-2.38567993 2.44163349 -1.20628025 1.20628025 0 0 Z " fill="#383838" transform="translate(1215,1197)"/>
<path d="M0 0 C0.66 0.99 1.32 1.98 2 3 C0.35 4.98 -1.3 6.96 -3 9 C-3 5.30581799 -1.71820705 3.22163822 0 0 Z " fill="#383838" transform="translate(566,1194)"/>
<path d="M0 0 C1 3 1 3 -0.25 5.5625 C-2 8 -2 8 -5 10 C-3.66511872 6.40608886 -2.03977277 3.24509304 0 0 Z " fill="#363636" transform="translate(669,568)"/>
<path d="M0 0 C0.33 0.99 0.66 1.98 1 3 C-0.65 4.65 -2.3 6.3 -4 8 C-4.66 7.67 -5.32 7.34 -6 7 C-4.02 4.69 -2.04 2.38 0 0 Z " fill="#1E1E1E" transform="translate(701,524)"/>
</svg>
