<?xml version="1.0" encoding="UTF-8"?>
<svg version="1.1" xmlns="http://www.w3.org/2000/svg" width="200" height="200">
<path d="M0 0 C0.99 0.33 1.98 0.66 3 1 C7.14355514 13.43066543 3.51308458 28.91808521 -1.5078125 40.46875 C-10.1808101 57.73406616 -24.81783401 69.62544595 -43.02587891 75.67285156 C-53.3975033 78.82910668 -63.17832816 80.13360089 -74 80 C-74 86.6 -74 93.2 -74 100 C-77.58070356 98.20964822 -80.02072247 96.47754103 -83.0625 93.9375 C-84.04089844 93.12539062 -85.01929687 92.31328125 -86.02734375 91.4765625 C-87.00832031 90.65929687 -87.98929688 89.84203125 -89 89 C-90.7068266 87.60232464 -92.41515467 86.20648078 -94.125 84.8125 C-101.7663138 78.56152714 -109.38172148 72.27900743 -117 66 C-115.40744839 62.59958066 -113.94831796 60.90764415 -110.9375 58.625 C-110.04675781 57.9340625 -109.15601563 57.243125 -108.23828125 56.53125 C-107.47765381 55.94150391 -107.47765381 55.94150391 -106.70166016 55.33984375 C-103.29646087 52.65867679 -99.9665232 49.88477653 -96.625 47.125 C-95.53131104 46.22491211 -95.53131104 46.22491211 -94.41552734 45.30664062 C-91.02888034 42.51648389 -87.65323248 39.71542643 -84.30859375 36.875 C-83.7554248 36.40690918 -83.20225586 35.93881836 -82.63232422 35.45654297 C-81.15899277 34.20684628 -79.69064497 32.95128084 -78.22265625 31.6953125 C-76 30 -76 30 -74 30 C-74 36.6 -74 43.2 -74 50 C-49.08658274 46.47470222 -26.16804559 42.6232318 -10 21.37109375 C-5.48890757 14.69195474 -2.62029482 7.59523246 0 0 Z " fill="#000000" transform="translate(166,79)"/>
<path d="M0 0 C3.58070356 1.79035178 6.02072247 3.52245897 9.0625 6.0625 C10.04089844 6.87460937 11.01929687 7.68671875 12.02734375 8.5234375 C13.00832031 9.34070312 13.98929687 10.15796875 15 11 C16.7068266 12.39767536 18.41515467 13.79351922 20.125 15.1875 C27.7663138 21.43847286 35.38172148 27.72099257 43 34 C41.40744839 37.40041934 39.94831796 39.09235585 36.9375 41.375 C36.04675781 42.0659375 35.15601563 42.756875 34.23828125 43.46875 C33.73119629 43.86191406 33.22411133 44.25507812 32.70166016 44.66015625 C29.29646087 47.34132321 25.9665232 50.11522347 22.625 52.875 C21.53131104 53.77508789 21.53131104 53.77508789 20.41552734 54.69335938 C17.02888034 57.48351611 13.65323248 60.28457357 10.30859375 63.125 C9.7554248 63.59309082 9.20225586 64.06118164 8.63232422 64.54345703 C7.15899277 65.79315372 5.69064497 67.04871916 4.22265625 68.3046875 C2 70 2 70 0 70 C0 63.4 0 56.8 0 50 C-24.34434685 53.44477319 -46.35831619 57.12972453 -63 77 C-68.02294768 84.14229549 -71.36967565 91.7005915 -74 100 C-74.99 99.67 -75.98 99.34 -77 99 C-81.50118356 85.49644933 -77.1121125 70.38892739 -71.6484375 57.9140625 C-68.16863035 50.97388847 -63.45664163 45.47602579 -58 40 C-57.20529297 39.17048828 -57.20529297 39.17048828 -56.39453125 38.32421875 C-41.75857063 24.36550052 -19.49710815 19.54124451 0 20 C0 13.4 0 6.8 0 0 Z " fill="#000000" transform="translate(108,21)"/>
</svg>
