<?xml version="1.0" encoding="UTF-8"?>
<svg version="1.1" xmlns="http://www.w3.org/2000/svg" width="980" height="962">
<path d="M0 0 C2.52677875 0.06291343 5.05334311 0.10439208 7.58056641 0.14501953 C36.52835612 0.76056949 65.88599963 11.24557942 89.02978516 28.81298828 C89.85865234 29.43431641 90.68751953 30.05564453 91.54150391 30.69580078 C108.00094858 43.46026808 121.90286085 58.32483777 134.00561523 75.23657227 C134.60269287 76.0610083 135.19977051 76.88544434 135.81494141 77.73486328 C136.33967041 78.47317383 136.86439941 79.21148437 137.4050293 79.97216797 C139.14098316 81.93897369 140.62448193 82.81678996 143.02978516 83.81298828 C143.40296875 83.00667969 143.40296875 83.00667969 143.78369141 82.18408203 C162.79310457 46.01256546 202.67000165 16.85292033 241.02978516 4.81298828 C282.30768752 -6.79790274 329.07491906 -1.25125085 366.34228516 19.62548828 C403.98393373 41.49726724 426.94415871 76.26775558 438.11962891 117.74658203 C449.95773983 167.74934907 436.55521627 223.44717765 415.02978516 268.81298828 C414.68061035 269.55291016 414.33143555 270.29283203 413.97167969 271.05517578 C411.76166329 275.69739667 409.43678555 280.27008697 407.02978516 284.81298828 C406.4898291 285.83706787 406.4898291 285.83706787 405.93896484 286.88183594 C396.24049458 305.14047793 385.18014648 322.5500516 372.51074219 338.88769531 C370.43526377 341.58588568 368.41051714 344.32075097 366.38183594 347.05419922 C361.11844099 354.13549366 355.71690107 361.0642774 350.02978516 367.81298828 C349.56572266 368.36728516 349.10166016 368.92158203 348.62353516 369.49267578 C343.07764056 376.10731048 337.51364013 382.58887116 331.26025391 388.55517578 C329.39383596 390.4444745 327.67789054 392.36516014 325.95166016 394.37939453 C321.69971898 399.27835789 317.13627026 403.85708364 312.54174805 408.43139648 C311.0945413 409.87324049 309.6527649 411.32035944 308.21142578 412.76806641 C303.51357142 417.46893937 298.75055365 422.03196717 293.70336914 426.35766602 C291.53693686 428.24156139 289.52827311 430.25300839 287.52978516 432.31298828 C284.21991817 435.66232557 280.82231566 438.81224785 277.24853516 441.87548828 C275.04587246 443.79894021 272.8968203 445.77388729 270.75341797 447.76293945 C265.56844165 452.57296913 260.25689696 457.13019098 254.74462891 461.56689453 C251.9230502 463.90129418 249.22387804 466.33289426 246.52978516 468.81298828 C241.71934243 473.23046526 236.75008128 477.38238416 231.66699219 481.48046875 C229.80590448 482.99520432 227.96221309 484.52970613 226.11962891 486.06689453 C217.33256969 493.38723701 208.39427255 500.41506336 199.19433594 507.20751953 C196.01665963 509.56443351 192.86065247 511.94984321 189.7019043 514.33203125 C163.49193485 534.07303958 163.49193485 534.07303958 150.27978516 542.68798828 C149.31443848 543.34118042 149.31443848 543.34118042 148.32958984 544.00756836 C145.37985676 545.88059427 143.43096815 546.81800307 139.90478516 546.77392578 C136.76761821 545.72536183 134.49527991 544.45271855 131.77978516 542.56298828 C130.20777344 541.47244141 130.20777344 541.47244141 128.60400391 540.35986328 C127.41181947 539.5119981 126.22045904 538.66297346 125.02978516 537.81298828 C124.37961426 537.3534375 123.72944336 536.89388672 123.05957031 536.42041016 C112.21200822 528.74406704 101.61900045 520.74793056 91.07275391 512.66455078 C87.29822536 509.77357426 83.49973689 506.91819905 79.68212891 504.08447266 C72.9475389 499.08373833 66.37762398 493.9197029 59.89233398 488.59960938 C55.60986968 485.08673668 51.27956397 481.64742597 46.90478516 478.25048828 C36.20743663 469.91056907 26.06785911 460.92936931 16.02978516 451.81298828 C14.4673377 450.41709614 12.90483615 449.02126453 11.34228516 447.62548828 C-2.4857633 435.13785662 -15.78557442 422.15814351 -28.94335938 408.97021484 C-31.48233238 406.42549128 -34.02584628 403.88536082 -36.57066345 401.34648323 C-38.56293741 399.35784519 -40.55279642 397.36680436 -42.54196167 395.37505722 C-43.92694231 393.98910371 -45.31390361 392.60513036 -46.70092773 391.22122192 C-51.14884279 386.75685064 -55.46455312 382.23910583 -59.56164551 377.44937134 C-61.45614535 375.24846623 -63.4684798 373.16626061 -65.47021484 371.06298828 C-72.30436143 363.57351257 -78.20640112 355.37038487 -84.20410156 347.20800781 C-85.73885528 345.1267341 -87.28845397 343.05843675 -88.84912109 340.99658203 C-101.52579655 324.15967975 -112.779417 306.24951524 -122.97021484 287.81298828 C-123.42348145 287.00216797 -123.87674805 286.19134766 -124.34375 285.35595703 C-138.88800205 259.18749514 -148.90042848 231.09526308 -154.97021484 201.81298828 C-155.16921387 200.8776123 -155.36821289 199.94223633 -155.57324219 198.97851562 C-161.08572657 172.12942091 -162.17156584 141.44506448 -154.97021484 114.81298828 C-154.78297852 114.09788086 -154.59574219 113.38277344 -154.40283203 112.64599609 C-153.14247206 107.95066541 -151.64388966 103.37609897 -149.97021484 98.81298828 C-149.72432617 98.13461914 -149.4784375 97.45625 -149.22509766 96.75732422 C-143.56790745 81.43251412 -135.81445107 67.10596333 -124.97021484 54.81298828 C-124.26251953 53.99701172 -123.55482422 53.18103516 -122.82568359 52.34033203 C-120.57818435 49.79369103 -118.28687908 47.2967944 -115.97021484 44.81298828 C-115.22255859 43.99958984 -114.47490234 43.18619141 -113.70458984 42.34814453 C-84.03312038 11.25205154 -41.84653102 -1.09418588 0 0 Z " fill="#010101" transform="translate(397.97021484375,0.18701171875)"/>
<path d="M0 0 C0.78503906 0.350625 1.57007813 0.70125 2.37890625 1.0625 C8.81702643 4.28715845 13.89657191 8.98277846 19 14 C19.66 14.64710938 20.32 15.29421875 21 15.9609375 C25.01105936 20.21340321 25.01105936 20.21340321 24.96875 23.22265625 C23.57796602 27.20994419 21.28851662 30.29226711 18.8125 33.6875 C18.27931152 34.42935547 17.74612305 35.17121094 17.19677734 35.93554688 C0.92231574 58.40194359 -16.86116612 79.92674381 -35.6328125 100.34765625 C-38.03616697 103.04052371 -40.30509493 105.80910197 -42.5625 108.625 C-46.02354747 112.91621053 -49.68032938 116.8285141 -53.6640625 120.63671875 C-56.29140948 123.29482063 -58.71778126 126.0875692 -61.16601562 128.90991211 C-64.0149405 132.15667008 -66.9730037 135.29650667 -69.9375 138.4375 C-70.48728516 139.02208984 -71.03707031 139.60667969 -71.60351562 140.20898438 C-72.85348967 141.53767556 -74.10475922 142.8651487 -75.35704041 144.19166565 C-77.37508141 146.33597913 -79.38737516 148.48517137 -81.39637756 150.63792419 C-90.66573715 160.55312717 -100.11334861 170.26249074 -109.71875 179.8515625 C-111.15659835 181.29008753 -112.59429849 182.7287607 -114.03186035 184.16757202 C-117.00823194 187.14539922 -119.98635671 190.12145802 -122.96582031 193.09619141 C-126.76600308 196.89063093 -130.56161305 200.68960825 -134.3559494 204.48989296 C-137.30879629 207.44636384 -140.26403337 210.4004363 -143.21998596 213.35380173 C-144.62082574 214.75397975 -146.02093788 216.15488619 -147.42027283 217.55656815 C-160.55629989 230.70982738 -160.55629989 230.70982738 -166.50280762 235.72299194 C-168.8023475 237.68435041 -170.89286502 239.83591542 -173 242 C-176.48465529 245.57883516 -180.12374475 248.87995089 -183.89453125 252.1484375 C-187.34270985 255.18078751 -190.66673208 258.34250988 -194 261.5 C-198.6540628 265.90863371 -203.35917615 270.23010841 -208.20068359 274.43261719 C-210.43587413 276.37968954 -212.62470003 278.37494469 -214.8125 280.375 C-219.18150683 284.32249469 -223.69992841 288.0442459 -228.27734375 291.74609375 C-230.94137353 293.95146704 -233.50788442 296.2317631 -236.0625 298.5625 C-240.87513449 302.93693543 -245.88418832 306.98774198 -251 311 C-252.02609375 311.82113281 -253.0521875 312.64226562 -254.109375 313.48828125 C-282.31453755 336.00772001 -310.68872075 354.43613346 -346.4375 361.75 C-347.40026855 361.94867676 -348.36303711 362.14735352 -349.35498047 362.35205078 C-368.21484548 365.99057987 -386.99138459 366.40207762 -406.14638138 366.37755966 C-408.2780835 366.37496583 -410.40977009 366.37562302 -412.54147339 366.37637329 C-439.08914554 366.36559683 -465.402808 364.84103477 -491.8515625 362.53027344 C-501.24901563 361.71119207 -510.65557148 361.01259978 -520.0625 360.3125 C-520.88952423 360.25044373 -521.71654846 360.18838745 -522.56863403 360.12445068 C-572.7443326 356.36147664 -627.52221986 352.79363698 -673 378 C-673.89501221 378.4942749 -673.89501221 378.4942749 -674.80810547 378.99853516 C-684.64829739 384.5622922 -692.53438067 391.80607726 -700.58129883 399.67700195 C-702.37147426 401.39634375 -704.17411983 403.08885347 -706.00268555 404.76635742 C-714.01191337 412.12550994 -721.78533874 419.70088771 -729.46484375 427.40234375 C-730.22118386 428.16081006 -730.22118386 428.16081006 -730.99280357 428.93459892 C-734.64461188 432.59867991 -738.29149363 436.26764702 -741.9375 439.9375 C-745.61323911 443.63707477 -749.29075774 447.33484847 -752.97250557 451.02844429 C-754.42128073 452.4835892 -755.86696119 453.94175733 -757.31248474 455.40013123 C-761.85142474 459.9558805 -766.43135811 464.38632684 -771.3228302 468.56341553 C-772.93244433 469.942135 -774.4950321 471.35759712 -776.046875 472.80078125 C-776.93890625 473.62964844 -777.8309375 474.45851563 -778.75 475.3125 C-779.65234375 476.15425781 -780.5546875 476.99601562 -781.484375 477.86328125 C-786.44627214 482.0778119 -786.44627214 482.0778119 -790.41796875 481.87890625 C-798.00999081 479.29463248 -804.42198626 471.84334001 -809.85546875 466.1171875 C-811.66750586 464.32825468 -813.51169093 462.69610059 -815.44737244 461.04624939 C-820.86347997 456.31888409 -825.91155525 451.22862355 -830.98657227 446.14282227 C-832.06977082 445.06098146 -833.15318139 443.9793529 -834.23678589 442.8979187 C-837.1584416 439.98079293 -840.07696003 437.0605477 -842.9947598 434.13956571 C-846.06091529 431.07086356 -849.12952688 428.00461896 -852.19773865 424.93797302 C-857.34806158 419.78946507 -862.49628244 414.63886223 -867.64331055 409.48706055 C-873.57857728 403.54635249 -879.51743766 397.60925524 -885.45817715 391.67402035 C-890.57532881 386.56141894 -895.69051381 381.44685601 -900.8040852 376.33067364 C-903.8509141 373.28229247 -906.89839849 370.23457483 -909.94766426 367.18863106 C-912.81539357 364.32380832 -915.68063143 361.45651609 -918.54403305 358.58736801 C-919.59000736 357.54008097 -920.63681582 356.49362621 -921.68455696 355.44810677 C-926.83412903 350.30844139 -931.89871073 345.14050944 -936.61889553 339.59797573 C-938.44534929 337.48471866 -940.41994163 335.55483844 -942.4375 333.625 C-945.63814778 330.4408788 -948.70006917 327.19049456 -951.625 323.75 C-952.29789063 322.96109375 -952.97078125 322.1721875 -953.6640625 321.359375 C-955 319 -955 319 -954.8984375 316.43359375 C-953.9273728 313.80327501 -952.91004713 312.35076788 -951 310.3125 C-948.26918154 307.38873154 -945.5971775 304.42115368 -942.9453125 301.42578125 C-937.79636772 295.69671079 -932.3591537 290.28056808 -926.875 284.875 C-924.97343773 283.00048331 -923.07566167 281.1223838 -921.1796875 279.2421875 C-920.35194824 278.4260498 -919.52420898 277.60991211 -918.67138672 276.76904297 C-916.6547815 274.67871795 -914.76019005 272.57798652 -912.87391663 270.37590027 C-908.88122963 265.79987985 -904.64447316 261.50386254 -900.34594727 257.21655273 C-899.50921478 256.37806793 -898.6724823 255.53958313 -897.81039429 254.6756897 C-895.06489508 251.9258168 -892.31578666 249.17958573 -889.56640625 246.43359375 C-887.64464273 244.51160701 -885.72347834 242.5890217 -883.80223083 240.66651917 C-879.78360426 236.6460797 -875.76288868 232.62773846 -871.7409668 228.6105957 C-867.10901589 223.98408571 -862.48067811 219.35398465 -857.85419995 214.72200245 C-853.86261117 210.72585739 -849.86905411 206.7316872 -845.87388271 202.73912388 C-843.49619789 200.36298805 -841.11937397 197.98600985 -838.74392891 195.60763359 C-836.09285442 192.95400566 -833.43857136 190.30362798 -830.78344727 187.65405273 C-830.00969254 186.87827377 -829.23593781 186.10249481 -828.43873596 185.3032074 C-824.33301559 181.21328347 -820.14517011 177.2863094 -815.74161434 173.51787663 C-813.04473454 171.16745339 -810.53787213 168.64366584 -808.03125 166.09375 C-807.50664185 165.56535522 -806.98203369 165.03696045 -806.44152832 164.49255371 C-804.79183919 162.83083649 -803.14548606 161.16587863 -801.5 159.5 C-794.85437058 152.77201105 -788.23646636 146.10201329 -781 140 C-779.91921363 139.05363344 -778.83973006 138.10577644 -777.76171875 137.15625 C-765.31270895 126.33846232 -752.48454191 119.00441638 -736.8125 113.8125 C-736.08353516 113.56234131 -735.35457031 113.31218262 -734.60351562 113.05444336 C-720.83055308 108.67415572 -706.07199613 108.60160377 -691.75 108.3125 C-690.88916809 108.29353668 -690.02833618 108.27457336 -689.14141846 108.2550354 C-664.17767226 107.71851377 -664.17767226 107.71851377 -652 109 C-651.04399902 109.09877441 -650.08799805 109.19754883 -649.10302734 109.29931641 C-620.5428865 112.42549996 -592.42370243 118.92688683 -564.35546875 124.890625 C-563.20954758 125.13393051 -562.0636264 125.37723602 -560.88298035 125.62791443 C-555.32896641 126.80831053 -549.77637484 127.99473388 -544.22631836 129.19360352 C-534.04064197 131.38335464 -523.84790891 133.45876816 -513.5859375 135.26171875 C-512.66761139 135.42420609 -511.74928528 135.58669342 -510.8031311 135.75410461 C-509.92498749 135.90445663 -509.04684387 136.05480865 -508.14208984 136.2097168 C-507.38761566 136.33904099 -506.63314148 136.46836517 -505.85580444 136.60160828 C-497.2390339 137.8036689 -488.79788558 138.13214362 -480.10009766 138.08178711 C-478.8463887 138.07872055 -477.59267975 138.07565399 -476.30097961 138.07249451 C-473.5897769 138.0653677 -470.87864847 138.0564531 -468.16746902 138.04459953 C-463.84915164 138.02609121 -459.53084191 138.016648 -455.2124939 138.00868225 C-442.93719922 137.98470362 -430.66195352 137.94915095 -418.38671875 137.90405273 C-411.59420477 137.87917756 -404.8017107 137.86201243 -398.00915754 137.85249335 C-394.43467064 137.84712082 -390.8602894 137.8380707 -387.28584671 137.81910515 C-373.03329977 137.74523308 -358.84665446 137.90052881 -344.62255859 138.89672852 C-343.48723505 138.97614402 -342.35191151 139.05555952 -341.18218422 139.13738155 C-320.28862106 140.77261639 -297.6723698 146.83316977 -282.96875 162.62890625 C-275.03127735 172.18852112 -270.95735916 183.48830987 -272 196 C-273.10636558 205.74655389 -278.03917459 213.10761611 -285.578125 219.2578125 C-326.58748884 248.75809681 -384.03894956 252.18894532 -432.84960938 252.18530273 C-436.10039496 252.18748349 -439.35083667 252.20570981 -442.6015625 252.22460938 C-457.49009496 252.26469497 -472.18388999 251.44425066 -487 250 C-487.76048645 249.92605011 -488.5209729 249.85210022 -489.30450439 249.77590942 C-493.45711064 249.36453694 -497.60403556 248.91068072 -501.75 248.4375 C-506.16484865 247.93929659 -510.58060247 247.45619153 -515 247 C-515.95173096 246.89993652 -516.90346191 246.79987305 -517.8840332 246.69677734 C-529.12260264 245.66911344 -540.41157128 245.75624658 -551.6875 245.75 C-552.78125946 245.74932526 -553.87501892 245.74865051 -555.00192261 245.74795532 C-600.73911737 244.7096791 -600.73911737 244.7096791 -642 260 C-643.67073042 262.76214972 -643.67073042 262.76214972 -644 266 C-642.47087921 270.3261628 -642.47087921 270.3261628 -639 273 C-631.30073268 273.48071167 -624.52882397 271.95031728 -617.0625 270.1875 C-575.26008495 260.94876707 -533.09900878 263.03895568 -490.79736328 267.43652344 C-452.8619007 271.35479599 -413.82980253 272.49305095 -376 267 C-374.77394043 266.82307617 -373.54788086 266.64615234 -372.28466797 266.46386719 C-343.0306066 262.09781447 -314.11057291 255.2554361 -288 241 C-286.58460938 240.22849609 -286.58460938 240.22849609 -285.140625 239.44140625 C-272.44625097 232.16776647 -259.935966 222.07439571 -255.25 207.69921875 C-252.16869762 194.62508155 -254.32465289 182.59366252 -258 170 C-258.46212891 168.39898438 -258.46212891 168.39898438 -258.93359375 166.765625 C-259.60150343 164.50304101 -260.28651925 162.24854539 -261 160 C-257.81269651 156.65819526 -254.70696283 153.97267481 -250.8125 151.5 C-245.47196999 148.01847367 -240.28285892 144.37157213 -235.125 140.625 C-234.34930664 140.06159912 -233.57361328 139.49819824 -232.77441406 138.91772461 C-231.23376157 137.79834932 -229.69323179 136.67880509 -228.15283203 135.55908203 C-225.13621153 133.37444396 -222.09960873 131.21850263 -219.0625 129.0625 C-211.12199225 123.41072003 -203.29268924 117.60825415 -195.45556641 111.81445312 C-192.26080426 109.4537977 -189.0628593 107.09748033 -185.86450195 104.74169922 C-184.28334767 103.57701624 -182.70245726 102.41197496 -181.12182617 101.24658203 C-177.19184558 98.34919406 -173.25911661 95.45569637 -169.3203125 92.5703125 C-158.21558621 84.42730896 -147.22991236 76.13769758 -136.30029297 67.76123047 C-134.31910824 66.24432677 -132.33452926 64.73209421 -130.34765625 63.22265625 C-123.77612834 58.2107493 -117.34603021 53.05123896 -110.94677734 47.82226562 C-105.74372118 43.57967735 -100.46589574 39.44991406 -95.125 35.3828125 C-93.05481622 33.80429737 -90.99216868 32.21584553 -88.9375 30.6171875 C-31.20879737 -14.2668788 -31.20879737 -14.2668788 0 0 Z " fill="#020202" transform="translate(955,480)"/>
<path d="M0 0 C0.99 0.495 0.99 0.495 2 1 C-44.53 47.53 -91.06 94.06 -139 142 C-139.66 141.67 -140.32 141.34 -141 141 C-139.60587891 139.62328125 -139.60587891 139.62328125 -138.18359375 138.21875 C-136.93475877 136.97930475 -135.68606864 135.73971355 -134.4375 134.5 C-133.52387695 133.59894531 -133.52387695 133.59894531 -132.59179688 132.6796875 C-131.98271484 132.07382812 -131.37363281 131.46796875 -130.74609375 130.84375 C-130.19622803 130.29912109 -129.6463623 129.75449219 -129.07983398 129.19335938 C-127.29197539 127.30791254 -125.60252432 125.38262206 -123.91088867 123.41188049 C-119.9040739 118.82558928 -115.6565442 114.51590208 -111.34594727 110.21655273 C-110.50921478 109.37806793 -109.6724823 108.53958313 -108.81039429 107.6756897 C-106.06489508 104.9258168 -103.31578666 102.17958573 -100.56640625 99.43359375 C-98.64464273 97.51160701 -96.72347834 95.5890217 -94.80223083 93.66651917 C-90.78360426 89.6460797 -86.76288868 85.62773846 -82.7409668 81.6105957 C-78.10901589 76.98408571 -73.48067811 72.35398465 -68.85419995 67.72200245 C-64.86261117 63.72585739 -60.86905411 59.7316872 -56.87388271 55.73912388 C-54.49619789 53.36298805 -52.11937397 50.98600985 -49.74392891 48.60763359 C-47.09285442 45.95400566 -44.43857136 43.30362798 -41.78344727 40.65405273 C-41.00969254 39.87827377 -40.23593781 39.10249481 -39.43873596 38.3032074 C-35.3369255 34.21717833 -31.1534732 30.29345432 -26.75401211 26.52872467 C-23.96017359 24.09373016 -21.35608464 21.48034683 -18.75 18.84765625 C-18.20641846 18.30265976 -17.66283691 17.75766327 -17.1027832 17.19615173 C-15.39945185 15.48730783 -13.69966674 13.77498803 -12 12.0625 C-10.83226626 10.88973991 -9.66429926 9.71721202 -8.49609375 8.54492188 C-5.66136766 5.69928311 -2.82981176 2.85052547 0 0 Z " fill="#656565" transform="translate(166,627)"/>
<path d="M0 0 C0.66 0.33 1.32 0.66 2 1 C-6.25 9.25 -14.5 17.5 -23 26 C-23.66 25.67 -24.32 25.34 -25 25 C-8.49514563 6.7961165 -8.49514563 6.7961165 0 0 Z " fill="#606060" transform="translate(581,37)"/>
</svg>
